%TF.GenerationSoftware,KiCad,Pcbnew,9.0.0*%
%TF.CreationDate,2025-03-25T14:42:11+07:00*%
%TF.ProjectId,stm32f1,73746d33-3266-4312-9e6b-696361645f70,rev?*%
%TF.SameCoordinates,Original*%
%TF.FileFunction,Soldermask,Top*%
%TF.FilePolarity,Negative*%
%FSLAX46Y46*%
G04 Gerber Fmt 4.6, Leading zero omitted, Abs format (unit mm)*
G04 Created by KiCad (PCBNEW 9.0.0) date 2025-03-25 14:42:11*
%MOMM*%
%LPD*%
G01*
G04 APERTURE LIST*
G04 Aperture macros list*
%AMRoundRect*
0 Rectangle with rounded corners*
0 $1 Rounding radius*
0 $2 $3 $4 $5 $6 $7 $8 $9 X,Y pos of 4 corners*
0 Add a 4 corners polygon primitive as box body*
4,1,4,$2,$3,$4,$5,$6,$7,$8,$9,$2,$3,0*
0 Add four circle primitives for the rounded corners*
1,1,$1+$1,$2,$3*
1,1,$1+$1,$4,$5*
1,1,$1+$1,$6,$7*
1,1,$1+$1,$8,$9*
0 Add four rect primitives between the rounded corners*
20,1,$1+$1,$2,$3,$4,$5,0*
20,1,$1+$1,$4,$5,$6,$7,0*
20,1,$1+$1,$6,$7,$8,$9,0*
20,1,$1+$1,$8,$9,$2,$3,0*%
G04 Aperture macros list end*
%ADD10RoundRect,0.140000X-0.140000X-0.170000X0.140000X-0.170000X0.140000X0.170000X-0.140000X0.170000X0*%
%ADD11C,2.200000*%
%ADD12R,0.800000X1.000000*%
%ADD13C,0.900000*%
%ADD14R,1.500000X0.700000*%
%ADD15R,1.200000X1.400000*%
%ADD16RoundRect,0.375000X-0.375000X0.625000X-0.375000X-0.625000X0.375000X-0.625000X0.375000X0.625000X0*%
%ADD17RoundRect,0.500000X-1.400000X0.500000X-1.400000X-0.500000X1.400000X-0.500000X1.400000X0.500000X0*%
%ADD18RoundRect,0.075000X-0.662500X-0.075000X0.662500X-0.075000X0.662500X0.075000X-0.662500X0.075000X0*%
%ADD19RoundRect,0.075000X-0.075000X-0.662500X0.075000X-0.662500X0.075000X0.662500X-0.075000X0.662500X0*%
%ADD20RoundRect,0.135000X-0.135000X-0.185000X0.135000X-0.185000X0.135000X0.185000X-0.135000X0.185000X0*%
%ADD21RoundRect,0.135000X0.135000X0.185000X-0.135000X0.185000X-0.135000X-0.185000X0.135000X-0.185000X0*%
%ADD22RoundRect,0.135000X0.185000X-0.135000X0.185000X0.135000X-0.185000X0.135000X-0.185000X-0.135000X0*%
%ADD23RoundRect,0.135000X-0.185000X0.135000X-0.185000X-0.135000X0.185000X-0.135000X0.185000X0.135000X0*%
%ADD24R,1.700000X1.700000*%
%ADD25O,1.700000X1.700000*%
%ADD26O,0.800000X0.800000*%
%ADD27R,1.300000X0.450000*%
%ADD28O,1.800000X1.150000*%
%ADD29O,2.000000X1.450000*%
%ADD30RoundRect,0.218750X-0.256250X0.218750X-0.256250X-0.218750X0.256250X-0.218750X0.256250X0.218750X0*%
%ADD31RoundRect,0.250000X0.475000X-0.250000X0.475000X0.250000X-0.475000X0.250000X-0.475000X-0.250000X0*%
%ADD32RoundRect,0.250000X-0.250000X-0.475000X0.250000X-0.475000X0.250000X0.475000X-0.250000X0.475000X0*%
%ADD33RoundRect,0.140000X0.170000X-0.140000X0.170000X0.140000X-0.170000X0.140000X-0.170000X-0.140000X0*%
%ADD34RoundRect,0.140000X0.140000X0.170000X-0.140000X0.170000X-0.140000X-0.170000X0.140000X-0.170000X0*%
%ADD35RoundRect,0.140000X-0.170000X0.140000X-0.170000X-0.140000X0.170000X-0.140000X0.170000X0.140000X0*%
G04 APERTURE END LIST*
D10*
%TO.C,C1*%
X117340000Y-57000000D03*
X118300000Y-57000000D03*
%TD*%
D11*
%TO.C,H4*%
X104900000Y-79883705D03*
%TD*%
%TO.C,H3*%
X139900000Y-79900000D03*
%TD*%
%TO.C,H2*%
X139900000Y-50000000D03*
%TD*%
%TO.C,H1*%
X104900000Y-50000000D03*
%TD*%
D12*
%TO.C,SW1*%
X104455000Y-54000000D03*
X102245000Y-54000000D03*
D13*
X103345000Y-56150000D03*
X103345000Y-59150000D03*
D12*
X104455000Y-61300000D03*
X102245000Y-61300000D03*
D14*
X105105000Y-55400000D03*
X105105000Y-58400000D03*
X105105000Y-59900000D03*
%TD*%
D15*
%TO.C,Y1*%
X108368000Y-61220000D03*
X108368000Y-63420000D03*
X110068000Y-63420000D03*
X110068000Y-61220000D03*
%TD*%
D16*
%TO.C,U3*%
X133300000Y-70500000D03*
X131000000Y-70500000D03*
D17*
X131000000Y-76800000D03*
D16*
X128700000Y-70500000D03*
%TD*%
D18*
%TO.C,U1*%
X116175000Y-60500000D03*
X116175000Y-61000000D03*
X116175000Y-61500000D03*
X116175000Y-62000000D03*
X116175000Y-62500000D03*
X116175000Y-63000000D03*
X116175000Y-63500000D03*
X116175000Y-64000000D03*
X116175000Y-64500000D03*
X116175000Y-65000000D03*
X116175000Y-65500000D03*
X116175000Y-66000000D03*
D19*
X117587500Y-67412500D03*
X118087500Y-67412500D03*
X118587500Y-67412500D03*
X119087500Y-67412500D03*
X119587500Y-67412500D03*
X120087500Y-67412500D03*
X120587500Y-67412500D03*
X121087500Y-67412500D03*
X121587500Y-67412500D03*
X122087500Y-67412500D03*
X122587500Y-67412500D03*
X123087500Y-67412500D03*
D18*
X124500000Y-66000000D03*
X124500000Y-65500000D03*
X124500000Y-65000000D03*
X124500000Y-64500000D03*
X124500000Y-64000000D03*
X124500000Y-63500000D03*
X124500000Y-63000000D03*
X124500000Y-62500000D03*
X124500000Y-62000000D03*
X124500000Y-61500000D03*
X124500000Y-61000000D03*
X124500000Y-60500000D03*
D19*
X123087500Y-59087500D03*
X122587500Y-59087500D03*
X122087500Y-59087500D03*
X121587500Y-59087500D03*
X121087500Y-59087500D03*
X120587500Y-59087500D03*
X120087500Y-59087500D03*
X119587500Y-59087500D03*
X119087500Y-59087500D03*
X118587500Y-59087500D03*
X118087500Y-59087500D03*
X117587500Y-59087500D03*
%TD*%
D20*
%TO.C,R5*%
X119070000Y-73500000D03*
X120090000Y-73500000D03*
%TD*%
D21*
%TO.C,R4*%
X117800000Y-73500000D03*
X116780000Y-73500000D03*
%TD*%
D22*
%TO.C,R3*%
X140600000Y-71600000D03*
X140600000Y-70580000D03*
%TD*%
D23*
%TO.C,R2*%
X130600000Y-60790000D03*
X130600000Y-61810000D03*
%TD*%
D22*
%TO.C,R1*%
X107900000Y-54510000D03*
X107900000Y-53490000D03*
%TD*%
D24*
%TO.C,J4*%
X115160000Y-81200000D03*
D25*
X117700000Y-81200000D03*
X120240000Y-81200000D03*
X122780000Y-81200000D03*
%TD*%
D24*
%TO.C,J3*%
X118080000Y-48600000D03*
D25*
X115540000Y-48600000D03*
X113000000Y-48600000D03*
X110460000Y-48600000D03*
%TD*%
D26*
%TO.C,J2*%
X138950000Y-64400000D03*
X138950000Y-59400000D03*
D27*
X137850000Y-63200000D03*
X137850000Y-62550000D03*
X137850000Y-61900000D03*
X137850000Y-61250000D03*
X137850000Y-60600000D03*
D28*
X141700000Y-65775000D03*
D29*
X137900000Y-65625000D03*
X137900000Y-58175000D03*
D28*
X141700000Y-58025000D03*
%TD*%
D24*
%TO.C,J1*%
X131100000Y-48600000D03*
D25*
X128560000Y-48600000D03*
X126020000Y-48600000D03*
X123480000Y-48600000D03*
%TD*%
D30*
%TO.C,FB1*%
X114808000Y-69316500D03*
X114808000Y-70891500D03*
%TD*%
%TO.C,D1*%
X140600000Y-73712500D03*
X140600000Y-75287500D03*
%TD*%
D31*
%TO.C,C13*%
X136300000Y-74400000D03*
X136300000Y-72500000D03*
%TD*%
D32*
%TO.C,C12*%
X130950000Y-67700000D03*
X132850000Y-67700000D03*
%TD*%
D33*
%TO.C,C11*%
X112080000Y-64080000D03*
X112080000Y-63120000D03*
%TD*%
%TO.C,C10*%
X112100000Y-61580000D03*
X112100000Y-60620000D03*
%TD*%
D10*
%TO.C,C9*%
X116940000Y-69600000D03*
X117900000Y-69600000D03*
%TD*%
D34*
%TO.C,C8*%
X113256000Y-71120000D03*
X112296000Y-71120000D03*
%TD*%
%TO.C,C7*%
X113256000Y-69200000D03*
X112296000Y-69200000D03*
%TD*%
D33*
%TO.C,C6*%
X113792000Y-65476000D03*
X113792000Y-64516000D03*
%TD*%
D34*
%TO.C,C5*%
X123880000Y-69500000D03*
X122920000Y-69500000D03*
%TD*%
D35*
%TO.C,C4*%
X126700000Y-60300000D03*
X126700000Y-61260000D03*
%TD*%
D10*
%TO.C,C3*%
X117340000Y-55600000D03*
X118300000Y-55600000D03*
%TD*%
D33*
%TO.C,C2*%
X114300000Y-60424000D03*
X114300000Y-59464000D03*
%TD*%
M02*
