%TF.GenerationSoftware,KiCad,Pcbnew,9.0.0*%
%TF.CreationDate,2025-03-25T14:42:11+07:00*%
%TF.ProjectId,stm32f1,73746d33-3266-4312-9e6b-696361645f70,rev?*%
%TF.SameCoordinates,Original*%
%TF.FileFunction,Legend,Top*%
%TF.FilePolarity,Positive*%
%FSLAX46Y46*%
G04 Gerber Fmt 4.6, Leading zero omitted, Abs format (unit mm)*
G04 Created by KiCad (PCBNEW 9.0.0) date 2025-03-25 14:42:11*
%MOMM*%
%LPD*%
G01*
G04 APERTURE LIST*
%ADD10C,0.125000*%
%ADD11C,0.150000*%
%ADD12C,0.120000*%
G04 APERTURE END LIST*
D10*
X112886997Y-50832309D02*
X112720331Y-50594214D01*
X112601283Y-50832309D02*
X112601283Y-50332309D01*
X112601283Y-50332309D02*
X112791759Y-50332309D01*
X112791759Y-50332309D02*
X112839378Y-50356119D01*
X112839378Y-50356119D02*
X112863188Y-50379928D01*
X112863188Y-50379928D02*
X112886997Y-50427547D01*
X112886997Y-50427547D02*
X112886997Y-50498976D01*
X112886997Y-50498976D02*
X112863188Y-50546595D01*
X112863188Y-50546595D02*
X112839378Y-50570404D01*
X112839378Y-50570404D02*
X112791759Y-50594214D01*
X112791759Y-50594214D02*
X112601283Y-50594214D01*
X113053664Y-50332309D02*
X113386997Y-50832309D01*
X113386997Y-50332309D02*
X113053664Y-50832309D01*
X141996521Y-74232309D02*
X142091759Y-74232309D01*
X142091759Y-74232309D02*
X142139378Y-74256119D01*
X142139378Y-74256119D02*
X142186997Y-74303738D01*
X142186997Y-74303738D02*
X142210807Y-74398976D01*
X142210807Y-74398976D02*
X142210807Y-74565642D01*
X142210807Y-74565642D02*
X142186997Y-74660880D01*
X142186997Y-74660880D02*
X142139378Y-74708500D01*
X142139378Y-74708500D02*
X142091759Y-74732309D01*
X142091759Y-74732309D02*
X141996521Y-74732309D01*
X141996521Y-74732309D02*
X141948902Y-74708500D01*
X141948902Y-74708500D02*
X141901283Y-74660880D01*
X141901283Y-74660880D02*
X141877474Y-74565642D01*
X141877474Y-74565642D02*
X141877474Y-74398976D01*
X141877474Y-74398976D02*
X141901283Y-74303738D01*
X141901283Y-74303738D02*
X141948902Y-74256119D01*
X141948902Y-74256119D02*
X141996521Y-74232309D01*
X142425093Y-74732309D02*
X142425093Y-74232309D01*
X142425093Y-74232309D02*
X142710807Y-74732309D01*
X142710807Y-74732309D02*
X142710807Y-74232309D01*
X108101283Y-48641833D02*
X108482236Y-48641833D01*
X121101283Y-48741833D02*
X121482236Y-48741833D01*
X115329855Y-50332309D02*
X115615569Y-50332309D01*
X115472712Y-50832309D02*
X115472712Y-50332309D01*
X115734616Y-50332309D02*
X116067949Y-50832309D01*
X116067949Y-50332309D02*
X115734616Y-50832309D01*
X127877474Y-51208500D02*
X127948902Y-51232309D01*
X127948902Y-51232309D02*
X128067950Y-51232309D01*
X128067950Y-51232309D02*
X128115569Y-51208500D01*
X128115569Y-51208500D02*
X128139378Y-51184690D01*
X128139378Y-51184690D02*
X128163188Y-51137071D01*
X128163188Y-51137071D02*
X128163188Y-51089452D01*
X128163188Y-51089452D02*
X128139378Y-51041833D01*
X128139378Y-51041833D02*
X128115569Y-51018023D01*
X128115569Y-51018023D02*
X128067950Y-50994214D01*
X128067950Y-50994214D02*
X127972712Y-50970404D01*
X127972712Y-50970404D02*
X127925093Y-50946595D01*
X127925093Y-50946595D02*
X127901283Y-50922785D01*
X127901283Y-50922785D02*
X127877474Y-50875166D01*
X127877474Y-50875166D02*
X127877474Y-50827547D01*
X127877474Y-50827547D02*
X127901283Y-50779928D01*
X127901283Y-50779928D02*
X127925093Y-50756119D01*
X127925093Y-50756119D02*
X127972712Y-50732309D01*
X127972712Y-50732309D02*
X128091759Y-50732309D01*
X128091759Y-50732309D02*
X128163188Y-50756119D01*
X128329854Y-50732309D02*
X128448902Y-51232309D01*
X128448902Y-51232309D02*
X128544140Y-50875166D01*
X128544140Y-50875166D02*
X128639378Y-51232309D01*
X128639378Y-51232309D02*
X128758426Y-50732309D01*
X128948902Y-51232309D02*
X128948902Y-50732309D01*
X128948902Y-50732309D02*
X129067950Y-50732309D01*
X129067950Y-50732309D02*
X129139378Y-50756119D01*
X129139378Y-50756119D02*
X129186997Y-50803738D01*
X129186997Y-50803738D02*
X129210807Y-50851357D01*
X129210807Y-50851357D02*
X129234616Y-50946595D01*
X129234616Y-50946595D02*
X129234616Y-51018023D01*
X129234616Y-51018023D02*
X129210807Y-51113261D01*
X129210807Y-51113261D02*
X129186997Y-51160880D01*
X129186997Y-51160880D02*
X129139378Y-51208500D01*
X129139378Y-51208500D02*
X129067950Y-51232309D01*
X129067950Y-51232309D02*
X128948902Y-51232309D01*
X129448902Y-51232309D02*
X129448902Y-50732309D01*
X129782235Y-50732309D02*
X129877473Y-50732309D01*
X129877473Y-50732309D02*
X129925092Y-50756119D01*
X129925092Y-50756119D02*
X129972711Y-50803738D01*
X129972711Y-50803738D02*
X129996521Y-50898976D01*
X129996521Y-50898976D02*
X129996521Y-51065642D01*
X129996521Y-51065642D02*
X129972711Y-51160880D01*
X129972711Y-51160880D02*
X129925092Y-51208500D01*
X129925092Y-51208500D02*
X129877473Y-51232309D01*
X129877473Y-51232309D02*
X129782235Y-51232309D01*
X129782235Y-51232309D02*
X129734616Y-51208500D01*
X129734616Y-51208500D02*
X129686997Y-51160880D01*
X129686997Y-51160880D02*
X129663188Y-51065642D01*
X129663188Y-51065642D02*
X129663188Y-50898976D01*
X129663188Y-50898976D02*
X129686997Y-50803738D01*
X129686997Y-50803738D02*
X129734616Y-50756119D01*
X129734616Y-50756119D02*
X129782235Y-50732309D01*
X124677474Y-51208500D02*
X124748902Y-51232309D01*
X124748902Y-51232309D02*
X124867950Y-51232309D01*
X124867950Y-51232309D02*
X124915569Y-51208500D01*
X124915569Y-51208500D02*
X124939378Y-51184690D01*
X124939378Y-51184690D02*
X124963188Y-51137071D01*
X124963188Y-51137071D02*
X124963188Y-51089452D01*
X124963188Y-51089452D02*
X124939378Y-51041833D01*
X124939378Y-51041833D02*
X124915569Y-51018023D01*
X124915569Y-51018023D02*
X124867950Y-50994214D01*
X124867950Y-50994214D02*
X124772712Y-50970404D01*
X124772712Y-50970404D02*
X124725093Y-50946595D01*
X124725093Y-50946595D02*
X124701283Y-50922785D01*
X124701283Y-50922785D02*
X124677474Y-50875166D01*
X124677474Y-50875166D02*
X124677474Y-50827547D01*
X124677474Y-50827547D02*
X124701283Y-50779928D01*
X124701283Y-50779928D02*
X124725093Y-50756119D01*
X124725093Y-50756119D02*
X124772712Y-50732309D01*
X124772712Y-50732309D02*
X124891759Y-50732309D01*
X124891759Y-50732309D02*
X124963188Y-50756119D01*
X125129854Y-50732309D02*
X125248902Y-51232309D01*
X125248902Y-51232309D02*
X125344140Y-50875166D01*
X125344140Y-50875166D02*
X125439378Y-51232309D01*
X125439378Y-51232309D02*
X125558426Y-50732309D01*
X126034616Y-51184690D02*
X126010807Y-51208500D01*
X126010807Y-51208500D02*
X125939378Y-51232309D01*
X125939378Y-51232309D02*
X125891759Y-51232309D01*
X125891759Y-51232309D02*
X125820331Y-51208500D01*
X125820331Y-51208500D02*
X125772712Y-51160880D01*
X125772712Y-51160880D02*
X125748902Y-51113261D01*
X125748902Y-51113261D02*
X125725093Y-51018023D01*
X125725093Y-51018023D02*
X125725093Y-50946595D01*
X125725093Y-50946595D02*
X125748902Y-50851357D01*
X125748902Y-50851357D02*
X125772712Y-50803738D01*
X125772712Y-50803738D02*
X125820331Y-50756119D01*
X125820331Y-50756119D02*
X125891759Y-50732309D01*
X125891759Y-50732309D02*
X125939378Y-50732309D01*
X125939378Y-50732309D02*
X126010807Y-50756119D01*
X126010807Y-50756119D02*
X126034616Y-50779928D01*
X126486997Y-51232309D02*
X126248902Y-51232309D01*
X126248902Y-51232309D02*
X126248902Y-50732309D01*
X126653664Y-51232309D02*
X126653664Y-50732309D01*
X126939378Y-51232309D02*
X126725093Y-50946595D01*
X126939378Y-50732309D02*
X126653664Y-51018023D01*
D11*
X115033333Y-57359580D02*
X114985714Y-57407200D01*
X114985714Y-57407200D02*
X114842857Y-57454819D01*
X114842857Y-57454819D02*
X114747619Y-57454819D01*
X114747619Y-57454819D02*
X114604762Y-57407200D01*
X114604762Y-57407200D02*
X114509524Y-57311961D01*
X114509524Y-57311961D02*
X114461905Y-57216723D01*
X114461905Y-57216723D02*
X114414286Y-57026247D01*
X114414286Y-57026247D02*
X114414286Y-56883390D01*
X114414286Y-56883390D02*
X114461905Y-56692914D01*
X114461905Y-56692914D02*
X114509524Y-56597676D01*
X114509524Y-56597676D02*
X114604762Y-56502438D01*
X114604762Y-56502438D02*
X114747619Y-56454819D01*
X114747619Y-56454819D02*
X114842857Y-56454819D01*
X114842857Y-56454819D02*
X114985714Y-56502438D01*
X114985714Y-56502438D02*
X115033333Y-56550057D01*
X115985714Y-57454819D02*
X115414286Y-57454819D01*
X115700000Y-57454819D02*
X115700000Y-56454819D01*
X115700000Y-56454819D02*
X115604762Y-56597676D01*
X115604762Y-56597676D02*
X115509524Y-56692914D01*
X115509524Y-56692914D02*
X115414286Y-56740533D01*
X104107200Y-65283332D02*
X104154819Y-65140475D01*
X104154819Y-65140475D02*
X104154819Y-64902380D01*
X104154819Y-64902380D02*
X104107200Y-64807142D01*
X104107200Y-64807142D02*
X104059580Y-64759523D01*
X104059580Y-64759523D02*
X103964342Y-64711904D01*
X103964342Y-64711904D02*
X103869104Y-64711904D01*
X103869104Y-64711904D02*
X103773866Y-64759523D01*
X103773866Y-64759523D02*
X103726247Y-64807142D01*
X103726247Y-64807142D02*
X103678628Y-64902380D01*
X103678628Y-64902380D02*
X103631009Y-65092856D01*
X103631009Y-65092856D02*
X103583390Y-65188094D01*
X103583390Y-65188094D02*
X103535771Y-65235713D01*
X103535771Y-65235713D02*
X103440533Y-65283332D01*
X103440533Y-65283332D02*
X103345295Y-65283332D01*
X103345295Y-65283332D02*
X103250057Y-65235713D01*
X103250057Y-65235713D02*
X103202438Y-65188094D01*
X103202438Y-65188094D02*
X103154819Y-65092856D01*
X103154819Y-65092856D02*
X103154819Y-64854761D01*
X103154819Y-64854761D02*
X103202438Y-64711904D01*
X103154819Y-64378570D02*
X104154819Y-64140475D01*
X104154819Y-64140475D02*
X103440533Y-63949999D01*
X103440533Y-63949999D02*
X104154819Y-63759523D01*
X104154819Y-63759523D02*
X103154819Y-63521428D01*
X104154819Y-62616666D02*
X104154819Y-63188094D01*
X104154819Y-62902380D02*
X103154819Y-62902380D01*
X103154819Y-62902380D02*
X103297676Y-62997618D01*
X103297676Y-62997618D02*
X103392914Y-63092856D01*
X103392914Y-63092856D02*
X103440533Y-63188094D01*
X108235809Y-65682628D02*
X108235809Y-66158819D01*
X107902476Y-65158819D02*
X108235809Y-65682628D01*
X108235809Y-65682628D02*
X108569142Y-65158819D01*
X109426285Y-66158819D02*
X108854857Y-66158819D01*
X109140571Y-66158819D02*
X109140571Y-65158819D01*
X109140571Y-65158819D02*
X109045333Y-65301676D01*
X109045333Y-65301676D02*
X108950095Y-65396914D01*
X108950095Y-65396914D02*
X108854857Y-65444533D01*
X124238095Y-73104819D02*
X124238095Y-73914342D01*
X124238095Y-73914342D02*
X124285714Y-74009580D01*
X124285714Y-74009580D02*
X124333333Y-74057200D01*
X124333333Y-74057200D02*
X124428571Y-74104819D01*
X124428571Y-74104819D02*
X124619047Y-74104819D01*
X124619047Y-74104819D02*
X124714285Y-74057200D01*
X124714285Y-74057200D02*
X124761904Y-74009580D01*
X124761904Y-74009580D02*
X124809523Y-73914342D01*
X124809523Y-73914342D02*
X124809523Y-73104819D01*
X125190476Y-73104819D02*
X125809523Y-73104819D01*
X125809523Y-73104819D02*
X125476190Y-73485771D01*
X125476190Y-73485771D02*
X125619047Y-73485771D01*
X125619047Y-73485771D02*
X125714285Y-73533390D01*
X125714285Y-73533390D02*
X125761904Y-73581009D01*
X125761904Y-73581009D02*
X125809523Y-73676247D01*
X125809523Y-73676247D02*
X125809523Y-73914342D01*
X125809523Y-73914342D02*
X125761904Y-74009580D01*
X125761904Y-74009580D02*
X125714285Y-74057200D01*
X125714285Y-74057200D02*
X125619047Y-74104819D01*
X125619047Y-74104819D02*
X125333333Y-74104819D01*
X125333333Y-74104819D02*
X125238095Y-74057200D01*
X125238095Y-74057200D02*
X125190476Y-74009580D01*
X119575595Y-56854819D02*
X119575595Y-57664342D01*
X119575595Y-57664342D02*
X119623214Y-57759580D01*
X119623214Y-57759580D02*
X119670833Y-57807200D01*
X119670833Y-57807200D02*
X119766071Y-57854819D01*
X119766071Y-57854819D02*
X119956547Y-57854819D01*
X119956547Y-57854819D02*
X120051785Y-57807200D01*
X120051785Y-57807200D02*
X120099404Y-57759580D01*
X120099404Y-57759580D02*
X120147023Y-57664342D01*
X120147023Y-57664342D02*
X120147023Y-56854819D01*
X121147023Y-57854819D02*
X120575595Y-57854819D01*
X120861309Y-57854819D02*
X120861309Y-56854819D01*
X120861309Y-56854819D02*
X120766071Y-56997676D01*
X120766071Y-56997676D02*
X120670833Y-57092914D01*
X120670833Y-57092914D02*
X120575595Y-57140533D01*
X121833333Y-74054819D02*
X121500000Y-73578628D01*
X121261905Y-74054819D02*
X121261905Y-73054819D01*
X121261905Y-73054819D02*
X121642857Y-73054819D01*
X121642857Y-73054819D02*
X121738095Y-73102438D01*
X121738095Y-73102438D02*
X121785714Y-73150057D01*
X121785714Y-73150057D02*
X121833333Y-73245295D01*
X121833333Y-73245295D02*
X121833333Y-73388152D01*
X121833333Y-73388152D02*
X121785714Y-73483390D01*
X121785714Y-73483390D02*
X121738095Y-73531009D01*
X121738095Y-73531009D02*
X121642857Y-73578628D01*
X121642857Y-73578628D02*
X121261905Y-73578628D01*
X122738095Y-73054819D02*
X122261905Y-73054819D01*
X122261905Y-73054819D02*
X122214286Y-73531009D01*
X122214286Y-73531009D02*
X122261905Y-73483390D01*
X122261905Y-73483390D02*
X122357143Y-73435771D01*
X122357143Y-73435771D02*
X122595238Y-73435771D01*
X122595238Y-73435771D02*
X122690476Y-73483390D01*
X122690476Y-73483390D02*
X122738095Y-73531009D01*
X122738095Y-73531009D02*
X122785714Y-73626247D01*
X122785714Y-73626247D02*
X122785714Y-73864342D01*
X122785714Y-73864342D02*
X122738095Y-73959580D01*
X122738095Y-73959580D02*
X122690476Y-74007200D01*
X122690476Y-74007200D02*
X122595238Y-74054819D01*
X122595238Y-74054819D02*
X122357143Y-74054819D01*
X122357143Y-74054819D02*
X122261905Y-74007200D01*
X122261905Y-74007200D02*
X122214286Y-73959580D01*
X115233333Y-74254819D02*
X114900000Y-73778628D01*
X114661905Y-74254819D02*
X114661905Y-73254819D01*
X114661905Y-73254819D02*
X115042857Y-73254819D01*
X115042857Y-73254819D02*
X115138095Y-73302438D01*
X115138095Y-73302438D02*
X115185714Y-73350057D01*
X115185714Y-73350057D02*
X115233333Y-73445295D01*
X115233333Y-73445295D02*
X115233333Y-73588152D01*
X115233333Y-73588152D02*
X115185714Y-73683390D01*
X115185714Y-73683390D02*
X115138095Y-73731009D01*
X115138095Y-73731009D02*
X115042857Y-73778628D01*
X115042857Y-73778628D02*
X114661905Y-73778628D01*
X116090476Y-73588152D02*
X116090476Y-74254819D01*
X115852381Y-73207200D02*
X115614286Y-73921485D01*
X115614286Y-73921485D02*
X116233333Y-73921485D01*
X140633333Y-69854819D02*
X140300000Y-69378628D01*
X140061905Y-69854819D02*
X140061905Y-68854819D01*
X140061905Y-68854819D02*
X140442857Y-68854819D01*
X140442857Y-68854819D02*
X140538095Y-68902438D01*
X140538095Y-68902438D02*
X140585714Y-68950057D01*
X140585714Y-68950057D02*
X140633333Y-69045295D01*
X140633333Y-69045295D02*
X140633333Y-69188152D01*
X140633333Y-69188152D02*
X140585714Y-69283390D01*
X140585714Y-69283390D02*
X140538095Y-69331009D01*
X140538095Y-69331009D02*
X140442857Y-69378628D01*
X140442857Y-69378628D02*
X140061905Y-69378628D01*
X140966667Y-68854819D02*
X141585714Y-68854819D01*
X141585714Y-68854819D02*
X141252381Y-69235771D01*
X141252381Y-69235771D02*
X141395238Y-69235771D01*
X141395238Y-69235771D02*
X141490476Y-69283390D01*
X141490476Y-69283390D02*
X141538095Y-69331009D01*
X141538095Y-69331009D02*
X141585714Y-69426247D01*
X141585714Y-69426247D02*
X141585714Y-69664342D01*
X141585714Y-69664342D02*
X141538095Y-69759580D01*
X141538095Y-69759580D02*
X141490476Y-69807200D01*
X141490476Y-69807200D02*
X141395238Y-69854819D01*
X141395238Y-69854819D02*
X141109524Y-69854819D01*
X141109524Y-69854819D02*
X141014286Y-69807200D01*
X141014286Y-69807200D02*
X140966667Y-69759580D01*
X131833333Y-61754819D02*
X131500000Y-61278628D01*
X131261905Y-61754819D02*
X131261905Y-60754819D01*
X131261905Y-60754819D02*
X131642857Y-60754819D01*
X131642857Y-60754819D02*
X131738095Y-60802438D01*
X131738095Y-60802438D02*
X131785714Y-60850057D01*
X131785714Y-60850057D02*
X131833333Y-60945295D01*
X131833333Y-60945295D02*
X131833333Y-61088152D01*
X131833333Y-61088152D02*
X131785714Y-61183390D01*
X131785714Y-61183390D02*
X131738095Y-61231009D01*
X131738095Y-61231009D02*
X131642857Y-61278628D01*
X131642857Y-61278628D02*
X131261905Y-61278628D01*
X132214286Y-60850057D02*
X132261905Y-60802438D01*
X132261905Y-60802438D02*
X132357143Y-60754819D01*
X132357143Y-60754819D02*
X132595238Y-60754819D01*
X132595238Y-60754819D02*
X132690476Y-60802438D01*
X132690476Y-60802438D02*
X132738095Y-60850057D01*
X132738095Y-60850057D02*
X132785714Y-60945295D01*
X132785714Y-60945295D02*
X132785714Y-61040533D01*
X132785714Y-61040533D02*
X132738095Y-61183390D01*
X132738095Y-61183390D02*
X132166667Y-61754819D01*
X132166667Y-61754819D02*
X132785714Y-61754819D01*
X109433333Y-54854819D02*
X109100000Y-54378628D01*
X108861905Y-54854819D02*
X108861905Y-53854819D01*
X108861905Y-53854819D02*
X109242857Y-53854819D01*
X109242857Y-53854819D02*
X109338095Y-53902438D01*
X109338095Y-53902438D02*
X109385714Y-53950057D01*
X109385714Y-53950057D02*
X109433333Y-54045295D01*
X109433333Y-54045295D02*
X109433333Y-54188152D01*
X109433333Y-54188152D02*
X109385714Y-54283390D01*
X109385714Y-54283390D02*
X109338095Y-54331009D01*
X109338095Y-54331009D02*
X109242857Y-54378628D01*
X109242857Y-54378628D02*
X108861905Y-54378628D01*
X110385714Y-54854819D02*
X109814286Y-54854819D01*
X110100000Y-54854819D02*
X110100000Y-53854819D01*
X110100000Y-53854819D02*
X110004762Y-53997676D01*
X110004762Y-53997676D02*
X109909524Y-54092914D01*
X109909524Y-54092914D02*
X109814286Y-54140533D01*
X114166666Y-72331009D02*
X113833333Y-72331009D01*
X113833333Y-72854819D02*
X113833333Y-71854819D01*
X113833333Y-71854819D02*
X114309523Y-71854819D01*
X115023809Y-72331009D02*
X115166666Y-72378628D01*
X115166666Y-72378628D02*
X115214285Y-72426247D01*
X115214285Y-72426247D02*
X115261904Y-72521485D01*
X115261904Y-72521485D02*
X115261904Y-72664342D01*
X115261904Y-72664342D02*
X115214285Y-72759580D01*
X115214285Y-72759580D02*
X115166666Y-72807200D01*
X115166666Y-72807200D02*
X115071428Y-72854819D01*
X115071428Y-72854819D02*
X114690476Y-72854819D01*
X114690476Y-72854819D02*
X114690476Y-71854819D01*
X114690476Y-71854819D02*
X115023809Y-71854819D01*
X115023809Y-71854819D02*
X115119047Y-71902438D01*
X115119047Y-71902438D02*
X115166666Y-71950057D01*
X115166666Y-71950057D02*
X115214285Y-72045295D01*
X115214285Y-72045295D02*
X115214285Y-72140533D01*
X115214285Y-72140533D02*
X115166666Y-72235771D01*
X115166666Y-72235771D02*
X115119047Y-72283390D01*
X115119047Y-72283390D02*
X115023809Y-72331009D01*
X115023809Y-72331009D02*
X114690476Y-72331009D01*
X116214285Y-72854819D02*
X115642857Y-72854819D01*
X115928571Y-72854819D02*
X115928571Y-71854819D01*
X115928571Y-71854819D02*
X115833333Y-71997676D01*
X115833333Y-71997676D02*
X115738095Y-72092914D01*
X115738095Y-72092914D02*
X115642857Y-72140533D01*
X139861905Y-77354819D02*
X139861905Y-76354819D01*
X139861905Y-76354819D02*
X140100000Y-76354819D01*
X140100000Y-76354819D02*
X140242857Y-76402438D01*
X140242857Y-76402438D02*
X140338095Y-76497676D01*
X140338095Y-76497676D02*
X140385714Y-76592914D01*
X140385714Y-76592914D02*
X140433333Y-76783390D01*
X140433333Y-76783390D02*
X140433333Y-76926247D01*
X140433333Y-76926247D02*
X140385714Y-77116723D01*
X140385714Y-77116723D02*
X140338095Y-77211961D01*
X140338095Y-77211961D02*
X140242857Y-77307200D01*
X140242857Y-77307200D02*
X140100000Y-77354819D01*
X140100000Y-77354819D02*
X139861905Y-77354819D01*
X141385714Y-77354819D02*
X140814286Y-77354819D01*
X141100000Y-77354819D02*
X141100000Y-76354819D01*
X141100000Y-76354819D02*
X141004762Y-76497676D01*
X141004762Y-76497676D02*
X140909524Y-76592914D01*
X140909524Y-76592914D02*
X140814286Y-76640533D01*
X135857142Y-70959580D02*
X135809523Y-71007200D01*
X135809523Y-71007200D02*
X135666666Y-71054819D01*
X135666666Y-71054819D02*
X135571428Y-71054819D01*
X135571428Y-71054819D02*
X135428571Y-71007200D01*
X135428571Y-71007200D02*
X135333333Y-70911961D01*
X135333333Y-70911961D02*
X135285714Y-70816723D01*
X135285714Y-70816723D02*
X135238095Y-70626247D01*
X135238095Y-70626247D02*
X135238095Y-70483390D01*
X135238095Y-70483390D02*
X135285714Y-70292914D01*
X135285714Y-70292914D02*
X135333333Y-70197676D01*
X135333333Y-70197676D02*
X135428571Y-70102438D01*
X135428571Y-70102438D02*
X135571428Y-70054819D01*
X135571428Y-70054819D02*
X135666666Y-70054819D01*
X135666666Y-70054819D02*
X135809523Y-70102438D01*
X135809523Y-70102438D02*
X135857142Y-70150057D01*
X136809523Y-71054819D02*
X136238095Y-71054819D01*
X136523809Y-71054819D02*
X136523809Y-70054819D01*
X136523809Y-70054819D02*
X136428571Y-70197676D01*
X136428571Y-70197676D02*
X136333333Y-70292914D01*
X136333333Y-70292914D02*
X136238095Y-70340533D01*
X137142857Y-70054819D02*
X137761904Y-70054819D01*
X137761904Y-70054819D02*
X137428571Y-70435771D01*
X137428571Y-70435771D02*
X137571428Y-70435771D01*
X137571428Y-70435771D02*
X137666666Y-70483390D01*
X137666666Y-70483390D02*
X137714285Y-70531009D01*
X137714285Y-70531009D02*
X137761904Y-70626247D01*
X137761904Y-70626247D02*
X137761904Y-70864342D01*
X137761904Y-70864342D02*
X137714285Y-70959580D01*
X137714285Y-70959580D02*
X137666666Y-71007200D01*
X137666666Y-71007200D02*
X137571428Y-71054819D01*
X137571428Y-71054819D02*
X137285714Y-71054819D01*
X137285714Y-71054819D02*
X137190476Y-71007200D01*
X137190476Y-71007200D02*
X137142857Y-70959580D01*
X131257142Y-66379580D02*
X131209523Y-66427200D01*
X131209523Y-66427200D02*
X131066666Y-66474819D01*
X131066666Y-66474819D02*
X130971428Y-66474819D01*
X130971428Y-66474819D02*
X130828571Y-66427200D01*
X130828571Y-66427200D02*
X130733333Y-66331961D01*
X130733333Y-66331961D02*
X130685714Y-66236723D01*
X130685714Y-66236723D02*
X130638095Y-66046247D01*
X130638095Y-66046247D02*
X130638095Y-65903390D01*
X130638095Y-65903390D02*
X130685714Y-65712914D01*
X130685714Y-65712914D02*
X130733333Y-65617676D01*
X130733333Y-65617676D02*
X130828571Y-65522438D01*
X130828571Y-65522438D02*
X130971428Y-65474819D01*
X130971428Y-65474819D02*
X131066666Y-65474819D01*
X131066666Y-65474819D02*
X131209523Y-65522438D01*
X131209523Y-65522438D02*
X131257142Y-65570057D01*
X132209523Y-66474819D02*
X131638095Y-66474819D01*
X131923809Y-66474819D02*
X131923809Y-65474819D01*
X131923809Y-65474819D02*
X131828571Y-65617676D01*
X131828571Y-65617676D02*
X131733333Y-65712914D01*
X131733333Y-65712914D02*
X131638095Y-65760533D01*
X132590476Y-65570057D02*
X132638095Y-65522438D01*
X132638095Y-65522438D02*
X132733333Y-65474819D01*
X132733333Y-65474819D02*
X132971428Y-65474819D01*
X132971428Y-65474819D02*
X133066666Y-65522438D01*
X133066666Y-65522438D02*
X133114285Y-65570057D01*
X133114285Y-65570057D02*
X133161904Y-65665295D01*
X133161904Y-65665295D02*
X133161904Y-65760533D01*
X133161904Y-65760533D02*
X133114285Y-65903390D01*
X133114285Y-65903390D02*
X132542857Y-66474819D01*
X132542857Y-66474819D02*
X133161904Y-66474819D01*
X110569142Y-66063580D02*
X110521523Y-66111200D01*
X110521523Y-66111200D02*
X110378666Y-66158819D01*
X110378666Y-66158819D02*
X110283428Y-66158819D01*
X110283428Y-66158819D02*
X110140571Y-66111200D01*
X110140571Y-66111200D02*
X110045333Y-66015961D01*
X110045333Y-66015961D02*
X109997714Y-65920723D01*
X109997714Y-65920723D02*
X109950095Y-65730247D01*
X109950095Y-65730247D02*
X109950095Y-65587390D01*
X109950095Y-65587390D02*
X109997714Y-65396914D01*
X109997714Y-65396914D02*
X110045333Y-65301676D01*
X110045333Y-65301676D02*
X110140571Y-65206438D01*
X110140571Y-65206438D02*
X110283428Y-65158819D01*
X110283428Y-65158819D02*
X110378666Y-65158819D01*
X110378666Y-65158819D02*
X110521523Y-65206438D01*
X110521523Y-65206438D02*
X110569142Y-65254057D01*
X111521523Y-66158819D02*
X110950095Y-66158819D01*
X111235809Y-66158819D02*
X111235809Y-65158819D01*
X111235809Y-65158819D02*
X111140571Y-65301676D01*
X111140571Y-65301676D02*
X111045333Y-65396914D01*
X111045333Y-65396914D02*
X110950095Y-65444533D01*
X112473904Y-66158819D02*
X111902476Y-66158819D01*
X112188190Y-66158819D02*
X112188190Y-65158819D01*
X112188190Y-65158819D02*
X112092952Y-65301676D01*
X112092952Y-65301676D02*
X111997714Y-65396914D01*
X111997714Y-65396914D02*
X111902476Y-65444533D01*
X108757142Y-59459580D02*
X108709523Y-59507200D01*
X108709523Y-59507200D02*
X108566666Y-59554819D01*
X108566666Y-59554819D02*
X108471428Y-59554819D01*
X108471428Y-59554819D02*
X108328571Y-59507200D01*
X108328571Y-59507200D02*
X108233333Y-59411961D01*
X108233333Y-59411961D02*
X108185714Y-59316723D01*
X108185714Y-59316723D02*
X108138095Y-59126247D01*
X108138095Y-59126247D02*
X108138095Y-58983390D01*
X108138095Y-58983390D02*
X108185714Y-58792914D01*
X108185714Y-58792914D02*
X108233333Y-58697676D01*
X108233333Y-58697676D02*
X108328571Y-58602438D01*
X108328571Y-58602438D02*
X108471428Y-58554819D01*
X108471428Y-58554819D02*
X108566666Y-58554819D01*
X108566666Y-58554819D02*
X108709523Y-58602438D01*
X108709523Y-58602438D02*
X108757142Y-58650057D01*
X109709523Y-59554819D02*
X109138095Y-59554819D01*
X109423809Y-59554819D02*
X109423809Y-58554819D01*
X109423809Y-58554819D02*
X109328571Y-58697676D01*
X109328571Y-58697676D02*
X109233333Y-58792914D01*
X109233333Y-58792914D02*
X109138095Y-58840533D01*
X110328571Y-58554819D02*
X110423809Y-58554819D01*
X110423809Y-58554819D02*
X110519047Y-58602438D01*
X110519047Y-58602438D02*
X110566666Y-58650057D01*
X110566666Y-58650057D02*
X110614285Y-58745295D01*
X110614285Y-58745295D02*
X110661904Y-58935771D01*
X110661904Y-58935771D02*
X110661904Y-59173866D01*
X110661904Y-59173866D02*
X110614285Y-59364342D01*
X110614285Y-59364342D02*
X110566666Y-59459580D01*
X110566666Y-59459580D02*
X110519047Y-59507200D01*
X110519047Y-59507200D02*
X110423809Y-59554819D01*
X110423809Y-59554819D02*
X110328571Y-59554819D01*
X110328571Y-59554819D02*
X110233333Y-59507200D01*
X110233333Y-59507200D02*
X110185714Y-59459580D01*
X110185714Y-59459580D02*
X110138095Y-59364342D01*
X110138095Y-59364342D02*
X110090476Y-59173866D01*
X110090476Y-59173866D02*
X110090476Y-58935771D01*
X110090476Y-58935771D02*
X110138095Y-58745295D01*
X110138095Y-58745295D02*
X110185714Y-58650057D01*
X110185714Y-58650057D02*
X110233333Y-58602438D01*
X110233333Y-58602438D02*
X110328571Y-58554819D01*
X117233333Y-71159580D02*
X117185714Y-71207200D01*
X117185714Y-71207200D02*
X117042857Y-71254819D01*
X117042857Y-71254819D02*
X116947619Y-71254819D01*
X116947619Y-71254819D02*
X116804762Y-71207200D01*
X116804762Y-71207200D02*
X116709524Y-71111961D01*
X116709524Y-71111961D02*
X116661905Y-71016723D01*
X116661905Y-71016723D02*
X116614286Y-70826247D01*
X116614286Y-70826247D02*
X116614286Y-70683390D01*
X116614286Y-70683390D02*
X116661905Y-70492914D01*
X116661905Y-70492914D02*
X116709524Y-70397676D01*
X116709524Y-70397676D02*
X116804762Y-70302438D01*
X116804762Y-70302438D02*
X116947619Y-70254819D01*
X116947619Y-70254819D02*
X117042857Y-70254819D01*
X117042857Y-70254819D02*
X117185714Y-70302438D01*
X117185714Y-70302438D02*
X117233333Y-70350057D01*
X117709524Y-71254819D02*
X117900000Y-71254819D01*
X117900000Y-71254819D02*
X117995238Y-71207200D01*
X117995238Y-71207200D02*
X118042857Y-71159580D01*
X118042857Y-71159580D02*
X118138095Y-71016723D01*
X118138095Y-71016723D02*
X118185714Y-70826247D01*
X118185714Y-70826247D02*
X118185714Y-70445295D01*
X118185714Y-70445295D02*
X118138095Y-70350057D01*
X118138095Y-70350057D02*
X118090476Y-70302438D01*
X118090476Y-70302438D02*
X117995238Y-70254819D01*
X117995238Y-70254819D02*
X117804762Y-70254819D01*
X117804762Y-70254819D02*
X117709524Y-70302438D01*
X117709524Y-70302438D02*
X117661905Y-70350057D01*
X117661905Y-70350057D02*
X117614286Y-70445295D01*
X117614286Y-70445295D02*
X117614286Y-70683390D01*
X117614286Y-70683390D02*
X117661905Y-70778628D01*
X117661905Y-70778628D02*
X117709524Y-70826247D01*
X117709524Y-70826247D02*
X117804762Y-70873866D01*
X117804762Y-70873866D02*
X117995238Y-70873866D01*
X117995238Y-70873866D02*
X118090476Y-70826247D01*
X118090476Y-70826247D02*
X118138095Y-70778628D01*
X118138095Y-70778628D02*
X118185714Y-70683390D01*
X110433333Y-71559580D02*
X110385714Y-71607200D01*
X110385714Y-71607200D02*
X110242857Y-71654819D01*
X110242857Y-71654819D02*
X110147619Y-71654819D01*
X110147619Y-71654819D02*
X110004762Y-71607200D01*
X110004762Y-71607200D02*
X109909524Y-71511961D01*
X109909524Y-71511961D02*
X109861905Y-71416723D01*
X109861905Y-71416723D02*
X109814286Y-71226247D01*
X109814286Y-71226247D02*
X109814286Y-71083390D01*
X109814286Y-71083390D02*
X109861905Y-70892914D01*
X109861905Y-70892914D02*
X109909524Y-70797676D01*
X109909524Y-70797676D02*
X110004762Y-70702438D01*
X110004762Y-70702438D02*
X110147619Y-70654819D01*
X110147619Y-70654819D02*
X110242857Y-70654819D01*
X110242857Y-70654819D02*
X110385714Y-70702438D01*
X110385714Y-70702438D02*
X110433333Y-70750057D01*
X111004762Y-71083390D02*
X110909524Y-71035771D01*
X110909524Y-71035771D02*
X110861905Y-70988152D01*
X110861905Y-70988152D02*
X110814286Y-70892914D01*
X110814286Y-70892914D02*
X110814286Y-70845295D01*
X110814286Y-70845295D02*
X110861905Y-70750057D01*
X110861905Y-70750057D02*
X110909524Y-70702438D01*
X110909524Y-70702438D02*
X111004762Y-70654819D01*
X111004762Y-70654819D02*
X111195238Y-70654819D01*
X111195238Y-70654819D02*
X111290476Y-70702438D01*
X111290476Y-70702438D02*
X111338095Y-70750057D01*
X111338095Y-70750057D02*
X111385714Y-70845295D01*
X111385714Y-70845295D02*
X111385714Y-70892914D01*
X111385714Y-70892914D02*
X111338095Y-70988152D01*
X111338095Y-70988152D02*
X111290476Y-71035771D01*
X111290476Y-71035771D02*
X111195238Y-71083390D01*
X111195238Y-71083390D02*
X111004762Y-71083390D01*
X111004762Y-71083390D02*
X110909524Y-71131009D01*
X110909524Y-71131009D02*
X110861905Y-71178628D01*
X110861905Y-71178628D02*
X110814286Y-71273866D01*
X110814286Y-71273866D02*
X110814286Y-71464342D01*
X110814286Y-71464342D02*
X110861905Y-71559580D01*
X110861905Y-71559580D02*
X110909524Y-71607200D01*
X110909524Y-71607200D02*
X111004762Y-71654819D01*
X111004762Y-71654819D02*
X111195238Y-71654819D01*
X111195238Y-71654819D02*
X111290476Y-71607200D01*
X111290476Y-71607200D02*
X111338095Y-71559580D01*
X111338095Y-71559580D02*
X111385714Y-71464342D01*
X111385714Y-71464342D02*
X111385714Y-71273866D01*
X111385714Y-71273866D02*
X111338095Y-71178628D01*
X111338095Y-71178628D02*
X111290476Y-71131009D01*
X111290476Y-71131009D02*
X111195238Y-71083390D01*
X110633333Y-69559580D02*
X110585714Y-69607200D01*
X110585714Y-69607200D02*
X110442857Y-69654819D01*
X110442857Y-69654819D02*
X110347619Y-69654819D01*
X110347619Y-69654819D02*
X110204762Y-69607200D01*
X110204762Y-69607200D02*
X110109524Y-69511961D01*
X110109524Y-69511961D02*
X110061905Y-69416723D01*
X110061905Y-69416723D02*
X110014286Y-69226247D01*
X110014286Y-69226247D02*
X110014286Y-69083390D01*
X110014286Y-69083390D02*
X110061905Y-68892914D01*
X110061905Y-68892914D02*
X110109524Y-68797676D01*
X110109524Y-68797676D02*
X110204762Y-68702438D01*
X110204762Y-68702438D02*
X110347619Y-68654819D01*
X110347619Y-68654819D02*
X110442857Y-68654819D01*
X110442857Y-68654819D02*
X110585714Y-68702438D01*
X110585714Y-68702438D02*
X110633333Y-68750057D01*
X110966667Y-68654819D02*
X111633333Y-68654819D01*
X111633333Y-68654819D02*
X111204762Y-69654819D01*
X112933333Y-67359580D02*
X112885714Y-67407200D01*
X112885714Y-67407200D02*
X112742857Y-67454819D01*
X112742857Y-67454819D02*
X112647619Y-67454819D01*
X112647619Y-67454819D02*
X112504762Y-67407200D01*
X112504762Y-67407200D02*
X112409524Y-67311961D01*
X112409524Y-67311961D02*
X112361905Y-67216723D01*
X112361905Y-67216723D02*
X112314286Y-67026247D01*
X112314286Y-67026247D02*
X112314286Y-66883390D01*
X112314286Y-66883390D02*
X112361905Y-66692914D01*
X112361905Y-66692914D02*
X112409524Y-66597676D01*
X112409524Y-66597676D02*
X112504762Y-66502438D01*
X112504762Y-66502438D02*
X112647619Y-66454819D01*
X112647619Y-66454819D02*
X112742857Y-66454819D01*
X112742857Y-66454819D02*
X112885714Y-66502438D01*
X112885714Y-66502438D02*
X112933333Y-66550057D01*
X113790476Y-66454819D02*
X113600000Y-66454819D01*
X113600000Y-66454819D02*
X113504762Y-66502438D01*
X113504762Y-66502438D02*
X113457143Y-66550057D01*
X113457143Y-66550057D02*
X113361905Y-66692914D01*
X113361905Y-66692914D02*
X113314286Y-66883390D01*
X113314286Y-66883390D02*
X113314286Y-67264342D01*
X113314286Y-67264342D02*
X113361905Y-67359580D01*
X113361905Y-67359580D02*
X113409524Y-67407200D01*
X113409524Y-67407200D02*
X113504762Y-67454819D01*
X113504762Y-67454819D02*
X113695238Y-67454819D01*
X113695238Y-67454819D02*
X113790476Y-67407200D01*
X113790476Y-67407200D02*
X113838095Y-67359580D01*
X113838095Y-67359580D02*
X113885714Y-67264342D01*
X113885714Y-67264342D02*
X113885714Y-67026247D01*
X113885714Y-67026247D02*
X113838095Y-66931009D01*
X113838095Y-66931009D02*
X113790476Y-66883390D01*
X113790476Y-66883390D02*
X113695238Y-66835771D01*
X113695238Y-66835771D02*
X113504762Y-66835771D01*
X113504762Y-66835771D02*
X113409524Y-66883390D01*
X113409524Y-66883390D02*
X113361905Y-66931009D01*
X113361905Y-66931009D02*
X113314286Y-67026247D01*
X125233333Y-69959580D02*
X125185714Y-70007200D01*
X125185714Y-70007200D02*
X125042857Y-70054819D01*
X125042857Y-70054819D02*
X124947619Y-70054819D01*
X124947619Y-70054819D02*
X124804762Y-70007200D01*
X124804762Y-70007200D02*
X124709524Y-69911961D01*
X124709524Y-69911961D02*
X124661905Y-69816723D01*
X124661905Y-69816723D02*
X124614286Y-69626247D01*
X124614286Y-69626247D02*
X124614286Y-69483390D01*
X124614286Y-69483390D02*
X124661905Y-69292914D01*
X124661905Y-69292914D02*
X124709524Y-69197676D01*
X124709524Y-69197676D02*
X124804762Y-69102438D01*
X124804762Y-69102438D02*
X124947619Y-69054819D01*
X124947619Y-69054819D02*
X125042857Y-69054819D01*
X125042857Y-69054819D02*
X125185714Y-69102438D01*
X125185714Y-69102438D02*
X125233333Y-69150057D01*
X126138095Y-69054819D02*
X125661905Y-69054819D01*
X125661905Y-69054819D02*
X125614286Y-69531009D01*
X125614286Y-69531009D02*
X125661905Y-69483390D01*
X125661905Y-69483390D02*
X125757143Y-69435771D01*
X125757143Y-69435771D02*
X125995238Y-69435771D01*
X125995238Y-69435771D02*
X126090476Y-69483390D01*
X126090476Y-69483390D02*
X126138095Y-69531009D01*
X126138095Y-69531009D02*
X126185714Y-69626247D01*
X126185714Y-69626247D02*
X126185714Y-69864342D01*
X126185714Y-69864342D02*
X126138095Y-69959580D01*
X126138095Y-69959580D02*
X126090476Y-70007200D01*
X126090476Y-70007200D02*
X125995238Y-70054819D01*
X125995238Y-70054819D02*
X125757143Y-70054819D01*
X125757143Y-70054819D02*
X125661905Y-70007200D01*
X125661905Y-70007200D02*
X125614286Y-69959580D01*
X126433333Y-59559580D02*
X126385714Y-59607200D01*
X126385714Y-59607200D02*
X126242857Y-59654819D01*
X126242857Y-59654819D02*
X126147619Y-59654819D01*
X126147619Y-59654819D02*
X126004762Y-59607200D01*
X126004762Y-59607200D02*
X125909524Y-59511961D01*
X125909524Y-59511961D02*
X125861905Y-59416723D01*
X125861905Y-59416723D02*
X125814286Y-59226247D01*
X125814286Y-59226247D02*
X125814286Y-59083390D01*
X125814286Y-59083390D02*
X125861905Y-58892914D01*
X125861905Y-58892914D02*
X125909524Y-58797676D01*
X125909524Y-58797676D02*
X126004762Y-58702438D01*
X126004762Y-58702438D02*
X126147619Y-58654819D01*
X126147619Y-58654819D02*
X126242857Y-58654819D01*
X126242857Y-58654819D02*
X126385714Y-58702438D01*
X126385714Y-58702438D02*
X126433333Y-58750057D01*
X127290476Y-58988152D02*
X127290476Y-59654819D01*
X127052381Y-58607200D02*
X126814286Y-59321485D01*
X126814286Y-59321485D02*
X127433333Y-59321485D01*
X114933333Y-55959580D02*
X114885714Y-56007200D01*
X114885714Y-56007200D02*
X114742857Y-56054819D01*
X114742857Y-56054819D02*
X114647619Y-56054819D01*
X114647619Y-56054819D02*
X114504762Y-56007200D01*
X114504762Y-56007200D02*
X114409524Y-55911961D01*
X114409524Y-55911961D02*
X114361905Y-55816723D01*
X114361905Y-55816723D02*
X114314286Y-55626247D01*
X114314286Y-55626247D02*
X114314286Y-55483390D01*
X114314286Y-55483390D02*
X114361905Y-55292914D01*
X114361905Y-55292914D02*
X114409524Y-55197676D01*
X114409524Y-55197676D02*
X114504762Y-55102438D01*
X114504762Y-55102438D02*
X114647619Y-55054819D01*
X114647619Y-55054819D02*
X114742857Y-55054819D01*
X114742857Y-55054819D02*
X114885714Y-55102438D01*
X114885714Y-55102438D02*
X114933333Y-55150057D01*
X115266667Y-55054819D02*
X115885714Y-55054819D01*
X115885714Y-55054819D02*
X115552381Y-55435771D01*
X115552381Y-55435771D02*
X115695238Y-55435771D01*
X115695238Y-55435771D02*
X115790476Y-55483390D01*
X115790476Y-55483390D02*
X115838095Y-55531009D01*
X115838095Y-55531009D02*
X115885714Y-55626247D01*
X115885714Y-55626247D02*
X115885714Y-55864342D01*
X115885714Y-55864342D02*
X115838095Y-55959580D01*
X115838095Y-55959580D02*
X115790476Y-56007200D01*
X115790476Y-56007200D02*
X115695238Y-56054819D01*
X115695238Y-56054819D02*
X115409524Y-56054819D01*
X115409524Y-56054819D02*
X115314286Y-56007200D01*
X115314286Y-56007200D02*
X115266667Y-55959580D01*
X112633333Y-59287580D02*
X112585714Y-59335200D01*
X112585714Y-59335200D02*
X112442857Y-59382819D01*
X112442857Y-59382819D02*
X112347619Y-59382819D01*
X112347619Y-59382819D02*
X112204762Y-59335200D01*
X112204762Y-59335200D02*
X112109524Y-59239961D01*
X112109524Y-59239961D02*
X112061905Y-59144723D01*
X112061905Y-59144723D02*
X112014286Y-58954247D01*
X112014286Y-58954247D02*
X112014286Y-58811390D01*
X112014286Y-58811390D02*
X112061905Y-58620914D01*
X112061905Y-58620914D02*
X112109524Y-58525676D01*
X112109524Y-58525676D02*
X112204762Y-58430438D01*
X112204762Y-58430438D02*
X112347619Y-58382819D01*
X112347619Y-58382819D02*
X112442857Y-58382819D01*
X112442857Y-58382819D02*
X112585714Y-58430438D01*
X112585714Y-58430438D02*
X112633333Y-58478057D01*
X113014286Y-58478057D02*
X113061905Y-58430438D01*
X113061905Y-58430438D02*
X113157143Y-58382819D01*
X113157143Y-58382819D02*
X113395238Y-58382819D01*
X113395238Y-58382819D02*
X113490476Y-58430438D01*
X113490476Y-58430438D02*
X113538095Y-58478057D01*
X113538095Y-58478057D02*
X113585714Y-58573295D01*
X113585714Y-58573295D02*
X113585714Y-58668533D01*
X113585714Y-58668533D02*
X113538095Y-58811390D01*
X113538095Y-58811390D02*
X112966667Y-59382819D01*
X112966667Y-59382819D02*
X113585714Y-59382819D01*
D12*
%TO.C,C1*%
X117712164Y-56640000D02*
X117927836Y-56640000D01*
X117712164Y-57360000D02*
X117927836Y-57360000D01*
%TO.C,SW1*%
X103745000Y-54200000D02*
X102955000Y-54200000D01*
X101945000Y-54800000D02*
X101945000Y-60500000D01*
X104795000Y-56050000D02*
X104795000Y-57750000D01*
X101945000Y-56250000D02*
X100655000Y-56250000D01*
X100655000Y-56250000D02*
X100445000Y-56450000D01*
X100445000Y-56450000D02*
X100445000Y-57350000D01*
X100655000Y-57550000D02*
X100445000Y-57350000D01*
X100655000Y-57550000D02*
X101945000Y-57550000D01*
X104795000Y-59050000D02*
X104795000Y-59250000D01*
X102955000Y-61100000D02*
X103745000Y-61100000D01*
%TO.C,Y1*%
X110868000Y-60320000D02*
X107568000Y-60320000D01*
X107568000Y-60320000D02*
X107568000Y-64320000D01*
%TO.C,U3*%
X134410000Y-71800000D02*
X134410000Y-75560000D01*
X127590000Y-71800000D02*
X127590000Y-75560000D01*
X134410000Y-75560000D02*
X133150000Y-75560000D01*
X127590000Y-75560000D02*
X128850000Y-75560000D01*
X134640000Y-70760000D02*
X134310000Y-70520000D01*
X134640000Y-70280000D01*
X134640000Y-70760000D01*
G36*
X134640000Y-70760000D02*
G01*
X134310000Y-70520000D01*
X134640000Y-70280000D01*
X134640000Y-70760000D01*
G37*
%TO.C,U1*%
X116727500Y-59640000D02*
X116727500Y-60090000D01*
X116727500Y-66860000D02*
X116727500Y-66410000D01*
X117177500Y-59640000D02*
X116727500Y-59640000D01*
X117177500Y-66860000D02*
X116727500Y-66860000D01*
X123497500Y-59640000D02*
X123947500Y-59640000D01*
X123497500Y-66860000D02*
X123947500Y-66860000D01*
X123947500Y-59640000D02*
X123947500Y-60090000D01*
X123947500Y-66860000D02*
X123947500Y-66410000D01*
X116137500Y-60090000D02*
X115797500Y-59620000D01*
X116477500Y-59620000D01*
X116137500Y-60090000D01*
G36*
X116137500Y-60090000D02*
G01*
X115797500Y-59620000D01*
X116477500Y-59620000D01*
X116137500Y-60090000D01*
G37*
%TO.C,R5*%
X119426359Y-73120000D02*
X119733641Y-73120000D01*
X119426359Y-73880000D02*
X119733641Y-73880000D01*
%TO.C,R4*%
X117443641Y-73880000D02*
X117136359Y-73880000D01*
X117443641Y-73120000D02*
X117136359Y-73120000D01*
%TO.C,R3*%
X140220000Y-71243641D02*
X140220000Y-70936359D01*
X140980000Y-71243641D02*
X140980000Y-70936359D01*
%TO.C,R2*%
X130980000Y-61146359D02*
X130980000Y-61453641D01*
X130220000Y-61146359D02*
X130220000Y-61453641D01*
%TO.C,R1*%
X107520000Y-54153641D02*
X107520000Y-53846359D01*
X108280000Y-54153641D02*
X108280000Y-53846359D01*
%TO.C,J4*%
X113830000Y-82530000D02*
X113830000Y-81200000D01*
X115160000Y-82530000D02*
X113830000Y-82530000D01*
X116430000Y-82530000D02*
X124110000Y-82530000D01*
X116430000Y-82530000D02*
X116430000Y-79870000D01*
X124110000Y-82530000D02*
X124110000Y-79870000D01*
X116430000Y-79870000D02*
X124110000Y-79870000D01*
%TO.C,J3*%
X119410000Y-47270000D02*
X119410000Y-48600000D01*
X118080000Y-47270000D02*
X119410000Y-47270000D01*
X116810000Y-47270000D02*
X109130000Y-47270000D01*
X116810000Y-47270000D02*
X116810000Y-49930000D01*
X109130000Y-47270000D02*
X109130000Y-49930000D01*
X116810000Y-49930000D02*
X109130000Y-49930000D01*
D11*
%TO.C,J2*%
X139100000Y-66050000D02*
X140500000Y-66050000D01*
X142900000Y-66050000D02*
X143050000Y-66050000D01*
X143050000Y-66050000D02*
X143050000Y-65750000D01*
X143050000Y-65750000D02*
X143500000Y-65750000D01*
X136925000Y-63700000D02*
X137350000Y-63700000D01*
X137350000Y-63700000D02*
X137350000Y-64700000D01*
X136925000Y-62975000D02*
X136925000Y-63700000D01*
X137350000Y-60100000D02*
X137350000Y-59100000D01*
X143050000Y-58050000D02*
X143050000Y-57750000D01*
X143500000Y-58050000D02*
X143050000Y-58050000D01*
X140500000Y-57750000D02*
X139100000Y-57750000D01*
X143050000Y-57750000D02*
X142900000Y-57750000D01*
D12*
%TO.C,J1*%
X132430000Y-47270000D02*
X132430000Y-48600000D01*
X131100000Y-47270000D02*
X132430000Y-47270000D01*
X129830000Y-47270000D02*
X122150000Y-47270000D01*
X129830000Y-47270000D02*
X129830000Y-49930000D01*
X122150000Y-47270000D02*
X122150000Y-49930000D01*
X129830000Y-49930000D02*
X122150000Y-49930000D01*
%TO.C,FB1*%
X115318000Y-69941221D02*
X115318000Y-70266779D01*
X114298000Y-69941221D02*
X114298000Y-70266779D01*
%TO.C,D1*%
X141335000Y-73015000D02*
X139865000Y-73015000D01*
X139865000Y-73015000D02*
X139865000Y-75300000D01*
X141335000Y-75300000D02*
X141335000Y-73015000D01*
%TO.C,C13*%
X135565000Y-73711252D02*
X135565000Y-73188748D01*
X137035000Y-73711252D02*
X137035000Y-73188748D01*
%TO.C,C12*%
X131638748Y-66965000D02*
X132161252Y-66965000D01*
X131638748Y-68435000D02*
X132161252Y-68435000D01*
%TO.C,C11*%
X111720000Y-63707836D02*
X111720000Y-63492164D01*
X112440000Y-63707836D02*
X112440000Y-63492164D01*
%TO.C,C10*%
X111740000Y-61207836D02*
X111740000Y-60992164D01*
X112460000Y-61207836D02*
X112460000Y-60992164D01*
%TO.C,C9*%
X117312164Y-69240000D02*
X117527836Y-69240000D01*
X117312164Y-69960000D02*
X117527836Y-69960000D01*
%TO.C,C8*%
X112883836Y-71480000D02*
X112668164Y-71480000D01*
X112883836Y-70760000D02*
X112668164Y-70760000D01*
%TO.C,C7*%
X112883836Y-69560000D02*
X112668164Y-69560000D01*
X112883836Y-68840000D02*
X112668164Y-68840000D01*
%TO.C,C6*%
X113432000Y-65103836D02*
X113432000Y-64888164D01*
X114152000Y-65103836D02*
X114152000Y-64888164D01*
%TO.C,C5*%
X123507836Y-69860000D02*
X123292164Y-69860000D01*
X123507836Y-69140000D02*
X123292164Y-69140000D01*
%TO.C,C4*%
X127060000Y-60672164D02*
X127060000Y-60887836D01*
X126340000Y-60672164D02*
X126340000Y-60887836D01*
%TO.C,C3*%
X117712164Y-55240000D02*
X117927836Y-55240000D01*
X117712164Y-55960000D02*
X117927836Y-55960000D01*
%TO.C,C2*%
X113940000Y-60051836D02*
X113940000Y-59836164D01*
X114660000Y-60051836D02*
X114660000Y-59836164D01*
%TD*%
M02*
