M48
; DRILL file {KiCad 9.0.0} date 2025-03-25T14:41:50+0700
; FORMAT={-:-/ absolute / metric / decimal}
; #@! TF.CreationDate,2025-03-25T14:41:50+07:00
; #@! TF.GenerationSoftware,Kicad,Pcbnew,9.0.0
; #@! TF.FileFunction,MixedPlating,1,2
FMAT,2
METRIC
; #@! TA.AperFunction,Plated,PTH,ViaDrill
T1C0.300
; #@! TA.AperFunction,Plated,PTH,ComponentDrill
T2C0.550
; #@! TA.AperFunction,Plated,PTH,ComponentDrill
T3C0.850
; #@! TA.AperFunction,Plated,PTH,ComponentDrill
T4C1.000
; #@! TA.AperFunction,NonPlated,NPTH,ComponentDrill
T5C0.800
; #@! TA.AperFunction,NonPlated,NPTH,ComponentDrill
T6C0.900
; #@! TA.AperFunction,NonPlated,NPTH,ComponentDrill
T7C2.200
%
G90
G05
T1
X106.4Y-55.4
X108.4Y-64.6
X111.0Y-61.2
X112.4Y-68.2
X112.9Y-64.8
X112.955Y-63.155
X113.0Y-60.6
X114.3Y-58.6
X114.9Y-75.2
X117.446Y-64.281
X117.7Y-75.2
X118.1Y-60.3
X118.7Y-69.6
X119.0Y-75.2
X121.1Y-75.2
X122.1Y-70.4
X122.6Y-66.2
X127.6Y-61.2
X133.3Y-72.0
X134.1Y-67.7
X136.5Y-60.6
X137.6Y-72.5
X139.8Y-70.6
T4
X110.46Y-48.6
X113.0Y-48.6
X115.16Y-81.2
X115.54Y-48.6
X117.7Y-81.2
X118.08Y-48.6
X120.24Y-81.2
X122.78Y-81.2
X123.48Y-48.6
X126.02Y-48.6
X128.56Y-48.6
X131.1Y-48.6
T5
X138.95Y-59.4
X138.95Y-64.4
T6
X103.345Y-56.15
X103.345Y-59.15
T7
X104.9Y-50.0
X104.9Y-79.884
X139.9Y-50.0
X139.9Y-79.9
T2
G00X141.375Y-58.025
M15
G01X142.025Y-58.025
M16
G05
G00X141.375Y-65.775
M15
G01X142.025Y-65.775
M16
G05
T3
G00X137.625Y-58.175
M15
G01X138.175Y-58.175
M16
G05
G00X137.625Y-65.625
M15
G01X138.175Y-65.625
M16
G05
M30
