%TF.GenerationSoftware,KiCad,Pcbnew,9.0.0*%
%TF.CreationDate,2025-03-25T14:42:11+07:00*%
%TF.ProjectId,stm32f1,73746d33-3266-4312-9e6b-696361645f70,rev?*%
%TF.SameCoordinates,Original*%
%TF.FileFunction,Copper,L1,Top*%
%TF.FilePolarity,Positive*%
%FSLAX46Y46*%
G04 Gerber Fmt 4.6, Leading zero omitted, Abs format (unit mm)*
G04 Created by KiCad (PCBNEW 9.0.0) date 2025-03-25 14:42:11*
%MOMM*%
%LPD*%
G01*
G04 APERTURE LIST*
G04 Aperture macros list*
%AMRoundRect*
0 Rectangle with rounded corners*
0 $1 Rounding radius*
0 $2 $3 $4 $5 $6 $7 $8 $9 X,Y pos of 4 corners*
0 Add a 4 corners polygon primitive as box body*
4,1,4,$2,$3,$4,$5,$6,$7,$8,$9,$2,$3,0*
0 Add four circle primitives for the rounded corners*
1,1,$1+$1,$2,$3*
1,1,$1+$1,$4,$5*
1,1,$1+$1,$6,$7*
1,1,$1+$1,$8,$9*
0 Add four rect primitives between the rounded corners*
20,1,$1+$1,$2,$3,$4,$5,0*
20,1,$1+$1,$4,$5,$6,$7,0*
20,1,$1+$1,$6,$7,$8,$9,0*
20,1,$1+$1,$8,$9,$2,$3,0*%
G04 Aperture macros list end*
%TA.AperFunction,SMDPad,CuDef*%
%ADD10RoundRect,0.140000X-0.140000X-0.170000X0.140000X-0.170000X0.140000X0.170000X-0.140000X0.170000X0*%
%TD*%
%TA.AperFunction,SMDPad,CuDef*%
%ADD11R,0.800000X1.000000*%
%TD*%
%TA.AperFunction,SMDPad,CuDef*%
%ADD12R,1.500000X0.700000*%
%TD*%
%TA.AperFunction,SMDPad,CuDef*%
%ADD13R,1.200000X1.400000*%
%TD*%
%TA.AperFunction,SMDPad,CuDef*%
%ADD14RoundRect,0.375000X-0.375000X0.625000X-0.375000X-0.625000X0.375000X-0.625000X0.375000X0.625000X0*%
%TD*%
%TA.AperFunction,SMDPad,CuDef*%
%ADD15RoundRect,0.500000X-1.400000X0.500000X-1.400000X-0.500000X1.400000X-0.500000X1.400000X0.500000X0*%
%TD*%
%TA.AperFunction,SMDPad,CuDef*%
%ADD16RoundRect,0.075000X-0.662500X-0.075000X0.662500X-0.075000X0.662500X0.075000X-0.662500X0.075000X0*%
%TD*%
%TA.AperFunction,SMDPad,CuDef*%
%ADD17RoundRect,0.075000X-0.075000X-0.662500X0.075000X-0.662500X0.075000X0.662500X-0.075000X0.662500X0*%
%TD*%
%TA.AperFunction,SMDPad,CuDef*%
%ADD18RoundRect,0.135000X-0.135000X-0.185000X0.135000X-0.185000X0.135000X0.185000X-0.135000X0.185000X0*%
%TD*%
%TA.AperFunction,SMDPad,CuDef*%
%ADD19RoundRect,0.135000X0.135000X0.185000X-0.135000X0.185000X-0.135000X-0.185000X0.135000X-0.185000X0*%
%TD*%
%TA.AperFunction,SMDPad,CuDef*%
%ADD20RoundRect,0.135000X0.185000X-0.135000X0.185000X0.135000X-0.185000X0.135000X-0.185000X-0.135000X0*%
%TD*%
%TA.AperFunction,SMDPad,CuDef*%
%ADD21RoundRect,0.135000X-0.185000X0.135000X-0.185000X-0.135000X0.185000X-0.135000X0.185000X0.135000X0*%
%TD*%
%TA.AperFunction,ComponentPad*%
%ADD22R,1.700000X1.700000*%
%TD*%
%TA.AperFunction,ComponentPad*%
%ADD23O,1.700000X1.700000*%
%TD*%
%TA.AperFunction,SMDPad,CuDef*%
%ADD24R,1.300000X0.450000*%
%TD*%
%TA.AperFunction,HeatsinkPad*%
%ADD25O,1.800000X1.150000*%
%TD*%
%TA.AperFunction,HeatsinkPad*%
%ADD26O,2.000000X1.450000*%
%TD*%
%TA.AperFunction,SMDPad,CuDef*%
%ADD27RoundRect,0.218750X-0.256250X0.218750X-0.256250X-0.218750X0.256250X-0.218750X0.256250X0.218750X0*%
%TD*%
%TA.AperFunction,SMDPad,CuDef*%
%ADD28RoundRect,0.250000X0.475000X-0.250000X0.475000X0.250000X-0.475000X0.250000X-0.475000X-0.250000X0*%
%TD*%
%TA.AperFunction,SMDPad,CuDef*%
%ADD29RoundRect,0.250000X-0.250000X-0.475000X0.250000X-0.475000X0.250000X0.475000X-0.250000X0.475000X0*%
%TD*%
%TA.AperFunction,SMDPad,CuDef*%
%ADD30RoundRect,0.140000X0.170000X-0.140000X0.170000X0.140000X-0.170000X0.140000X-0.170000X-0.140000X0*%
%TD*%
%TA.AperFunction,SMDPad,CuDef*%
%ADD31RoundRect,0.140000X0.140000X0.170000X-0.140000X0.170000X-0.140000X-0.170000X0.140000X-0.170000X0*%
%TD*%
%TA.AperFunction,SMDPad,CuDef*%
%ADD32RoundRect,0.140000X-0.170000X0.140000X-0.170000X-0.140000X0.170000X-0.140000X0.170000X0.140000X0*%
%TD*%
%TA.AperFunction,ViaPad*%
%ADD33C,0.700000*%
%TD*%
%TA.AperFunction,Conductor*%
%ADD34C,0.300000*%
%TD*%
%TA.AperFunction,Conductor*%
%ADD35C,0.500000*%
%TD*%
%TA.AperFunction,Conductor*%
%ADD36C,0.200000*%
%TD*%
G04 APERTURE END LIST*
D10*
%TO.P,C1,1*%
%TO.N,+3.3V*%
X117340000Y-57000000D03*
%TO.P,C1,2*%
%TO.N,GND*%
X118300000Y-57000000D03*
%TD*%
D11*
%TO.P,SW1,*%
%TO.N,*%
X104455000Y-54000000D03*
X102245000Y-54000000D03*
X104455000Y-61300000D03*
X102245000Y-61300000D03*
D12*
%TO.P,SW1,1,A*%
%TO.N,GND*%
X105105000Y-55400000D03*
%TO.P,SW1,2,B*%
%TO.N,Net-(SW1-B)*%
X105105000Y-58400000D03*
%TO.P,SW1,3,C*%
%TO.N,+3.3V*%
X105105000Y-59900000D03*
%TD*%
D13*
%TO.P,Y1,1,1*%
%TO.N,/HSE_IN*%
X108368000Y-61220000D03*
%TO.P,Y1,2,2*%
%TO.N,GND*%
X108368000Y-63420000D03*
%TO.P,Y1,3,3*%
%TO.N,/HSE_OUT*%
X110068000Y-63420000D03*
%TO.P,Y1,4,4*%
%TO.N,GND*%
X110068000Y-61220000D03*
%TD*%
D14*
%TO.P,U3,1,GND*%
%TO.N,GND*%
X133300000Y-70500000D03*
%TO.P,U3,2,VO*%
%TO.N,+3.3V*%
X131000000Y-70500000D03*
D15*
X131000000Y-76800000D03*
D14*
%TO.P,U3,3,VI*%
%TO.N,VBUS*%
X128700000Y-70500000D03*
%TD*%
D16*
%TO.P,U1,1,VBAT*%
%TO.N,+3.3V*%
X116175000Y-60500000D03*
%TO.P,U1,2,PC13*%
%TO.N,unconnected-(U1-PC13-Pad2)*%
X116175000Y-61000000D03*
%TO.P,U1,3,PC14*%
%TO.N,unconnected-(U1-PC14-Pad3)*%
X116175000Y-61500000D03*
%TO.P,U1,4,PC15*%
%TO.N,unconnected-(U1-PC15-Pad4)*%
X116175000Y-62000000D03*
%TO.P,U1,5,PD0*%
%TO.N,/HSE_IN*%
X116175000Y-62500000D03*
%TO.P,U1,6,PD1*%
%TO.N,/HSE_OUT*%
X116175000Y-63000000D03*
%TO.P,U1,7,NRST*%
%TO.N,/NRST*%
X116175000Y-63500000D03*
%TO.P,U1,8,VSSA*%
%TO.N,GND*%
X116175000Y-64000000D03*
%TO.P,U1,9,VDDA*%
%TO.N,+3.3VA*%
X116175000Y-64500000D03*
%TO.P,U1,10,PA0*%
%TO.N,unconnected-(U1-PA0-Pad10)*%
X116175000Y-65000000D03*
%TO.P,U1,11,PA1*%
%TO.N,unconnected-(U1-PA1-Pad11)*%
X116175000Y-65500000D03*
%TO.P,U1,12,PA2*%
%TO.N,unconnected-(U1-PA2-Pad12)*%
X116175000Y-66000000D03*
D17*
%TO.P,U1,13,PA3*%
%TO.N,unconnected-(U1-PA3-Pad13)*%
X117587500Y-67412500D03*
%TO.P,U1,14,PA4*%
%TO.N,unconnected-(U1-PA4-Pad14)*%
X118087500Y-67412500D03*
%TO.P,U1,15,PA5*%
%TO.N,unconnected-(U1-PA5-Pad15)*%
X118587500Y-67412500D03*
%TO.P,U1,16,PA6*%
%TO.N,unconnected-(U1-PA6-Pad16)*%
X119087500Y-67412500D03*
%TO.P,U1,17,PA7*%
%TO.N,unconnected-(U1-PA7-Pad17)*%
X119587500Y-67412500D03*
%TO.P,U1,18,PB0*%
%TO.N,unconnected-(U1-PB0-Pad18)*%
X120087500Y-67412500D03*
%TO.P,U1,19,PB1*%
%TO.N,unconnected-(U1-PB1-Pad19)*%
X120587500Y-67412500D03*
%TO.P,U1,20,PB2*%
%TO.N,unconnected-(U1-PB2-Pad20)*%
X121087500Y-67412500D03*
%TO.P,U1,21,PB10*%
%TO.N,/I2C2_SCL*%
X121587500Y-67412500D03*
%TO.P,U1,22,PB11*%
%TO.N,/I2C2_SDA*%
X122087500Y-67412500D03*
%TO.P,U1,23,VSS*%
%TO.N,GND*%
X122587500Y-67412500D03*
%TO.P,U1,24,VDD*%
%TO.N,+3.3V*%
X123087500Y-67412500D03*
D16*
%TO.P,U1,25,PB12*%
%TO.N,unconnected-(U1-PB12-Pad25)*%
X124500000Y-66000000D03*
%TO.P,U1,26,PB13*%
%TO.N,unconnected-(U1-PB13-Pad26)*%
X124500000Y-65500000D03*
%TO.P,U1,27,PB14*%
%TO.N,unconnected-(U1-PB14-Pad27)*%
X124500000Y-65000000D03*
%TO.P,U1,28,PB15*%
%TO.N,unconnected-(U1-PB15-Pad28)*%
X124500000Y-64500000D03*
%TO.P,U1,29,PA8*%
%TO.N,unconnected-(U1-PA8-Pad29)*%
X124500000Y-64000000D03*
%TO.P,U1,30,PA9*%
%TO.N,unconnected-(U1-PA9-Pad30)*%
X124500000Y-63500000D03*
%TO.P,U1,31,PA10*%
%TO.N,unconnected-(U1-PA10-Pad31)*%
X124500000Y-63000000D03*
%TO.P,U1,32,PA11*%
%TO.N,/USB_D-*%
X124500000Y-62500000D03*
%TO.P,U1,33,PA12*%
%TO.N,/USB_D+*%
X124500000Y-62000000D03*
%TO.P,U1,34,PA13*%
%TO.N,/SWDIO*%
X124500000Y-61500000D03*
%TO.P,U1,35,VSS*%
%TO.N,GND*%
X124500000Y-61000000D03*
%TO.P,U1,36,VDD*%
%TO.N,+3.3V*%
X124500000Y-60500000D03*
D17*
%TO.P,U1,37,PA14*%
%TO.N,/SWCLK*%
X123087500Y-59087500D03*
%TO.P,U1,38,PA15*%
%TO.N,unconnected-(U1-PA15-Pad38)*%
X122587500Y-59087500D03*
%TO.P,U1,39,PB3*%
%TO.N,unconnected-(U1-PB3-Pad39)*%
X122087500Y-59087500D03*
%TO.P,U1,40,PB4*%
%TO.N,unconnected-(U1-PB4-Pad40)*%
X121587500Y-59087500D03*
%TO.P,U1,41,PB5*%
%TO.N,unconnected-(U1-PB5-Pad41)*%
X121087500Y-59087500D03*
%TO.P,U1,42,PB6*%
%TO.N,/USART1_TX*%
X120587500Y-59087500D03*
%TO.P,U1,43,PB7*%
%TO.N,/USART1_RX*%
X120087500Y-59087500D03*
%TO.P,U1,44,BOOT0*%
%TO.N,Net-(U1-BOOT0)*%
X119587500Y-59087500D03*
%TO.P,U1,45,PB8*%
%TO.N,unconnected-(U1-PB8-Pad45)*%
X119087500Y-59087500D03*
%TO.P,U1,46,PB9*%
%TO.N,unconnected-(U1-PB9-Pad46)*%
X118587500Y-59087500D03*
%TO.P,U1,47,VSS*%
%TO.N,GND*%
X118087500Y-59087500D03*
%TO.P,U1,48,VDD*%
%TO.N,+3.3V*%
X117587500Y-59087500D03*
%TD*%
D18*
%TO.P,R5,1*%
%TO.N,+3.3V*%
X119070000Y-73500000D03*
%TO.P,R5,2*%
%TO.N,/I2C2_SDA*%
X120090000Y-73500000D03*
%TD*%
D19*
%TO.P,R4,1*%
%TO.N,+3.3V*%
X117800000Y-73500000D03*
%TO.P,R4,2*%
%TO.N,/I2C2_SCL*%
X116780000Y-73500000D03*
%TD*%
D20*
%TO.P,R3,1*%
%TO.N,/PWR_LED_K*%
X140600000Y-71600000D03*
%TO.P,R3,2*%
%TO.N,GND*%
X140600000Y-70580000D03*
%TD*%
D21*
%TO.P,R2,1*%
%TO.N,+3.3V*%
X130600000Y-60790000D03*
%TO.P,R2,2*%
%TO.N,/USB_D+*%
X130600000Y-61810000D03*
%TD*%
D20*
%TO.P,R1,1*%
%TO.N,Net-(SW1-B)*%
X107900000Y-54510000D03*
%TO.P,R1,2*%
%TO.N,Net-(U1-BOOT0)*%
X107900000Y-53490000D03*
%TD*%
D22*
%TO.P,J4,1,Pin_1*%
%TO.N,+3.3V*%
X115160000Y-81200000D03*
D23*
%TO.P,J4,2,Pin_2*%
%TO.N,/I2C2_SCL*%
X117700000Y-81200000D03*
%TO.P,J4,3,Pin_3*%
%TO.N,/I2C2_SDA*%
X120240000Y-81200000D03*
%TO.P,J4,4,Pin_4*%
%TO.N,GND*%
X122780000Y-81200000D03*
%TD*%
D22*
%TO.P,J3,1,Pin_1*%
%TO.N,+3.3V*%
X118080000Y-48600000D03*
D23*
%TO.P,J3,2,Pin_2*%
%TO.N,/USART1_TX*%
X115540000Y-48600000D03*
%TO.P,J3,3,Pin_3*%
%TO.N,/USART1_RX*%
X113000000Y-48600000D03*
%TO.P,J3,4,Pin_4*%
%TO.N,GND*%
X110460000Y-48600000D03*
%TD*%
D24*
%TO.P,J2,1,VBUS*%
%TO.N,VBUS*%
X137850000Y-63200000D03*
%TO.P,J2,2,D-*%
%TO.N,/USB_D-*%
X137850000Y-62550000D03*
%TO.P,J2,3,D+*%
%TO.N,/USB_D+*%
X137850000Y-61900000D03*
%TO.P,J2,4,ID*%
%TO.N,unconnected-(J2-ID-Pad4)*%
X137850000Y-61250000D03*
%TO.P,J2,5,GND*%
%TO.N,GND*%
X137850000Y-60600000D03*
D25*
%TO.P,J2,6,Shield*%
%TO.N,unconnected-(J2-Shield-Pad6)_2*%
X141700000Y-65775000D03*
D26*
%TO.N,unconnected-(J2-Shield-Pad6)_1*%
X137900000Y-65625000D03*
%TO.N,unconnected-(J2-Shield-Pad6)_3*%
X137900000Y-58175000D03*
D25*
%TO.N,unconnected-(J2-Shield-Pad6)*%
X141700000Y-58025000D03*
%TD*%
D22*
%TO.P,J1,1,Pin_1*%
%TO.N,+3.3V*%
X131100000Y-48600000D03*
D23*
%TO.P,J1,2,Pin_2*%
%TO.N,/SWDIO*%
X128560000Y-48600000D03*
%TO.P,J1,3,Pin_3*%
%TO.N,/SWCLK*%
X126020000Y-48600000D03*
%TO.P,J1,4,Pin_4*%
%TO.N,GND*%
X123480000Y-48600000D03*
%TD*%
D27*
%TO.P,FB1,1*%
%TO.N,+3.3VA*%
X114808000Y-69316500D03*
%TO.P,FB1,2*%
%TO.N,+3.3V*%
X114808000Y-70891500D03*
%TD*%
%TO.P,D1,1,K*%
%TO.N,/PWR_LED_K*%
X140600000Y-73712500D03*
%TO.P,D1,2,A*%
%TO.N,+3.3V*%
X140600000Y-75287500D03*
%TD*%
D28*
%TO.P,C13,1*%
%TO.N,+3.3V*%
X136300000Y-74400000D03*
%TO.P,C13,2*%
%TO.N,GND*%
X136300000Y-72500000D03*
%TD*%
D29*
%TO.P,C12,1*%
%TO.N,VBUS*%
X130950000Y-67700000D03*
%TO.P,C12,2*%
%TO.N,GND*%
X132850000Y-67700000D03*
%TD*%
D30*
%TO.P,C11,1*%
%TO.N,/HSE_OUT*%
X112080000Y-64080000D03*
%TO.P,C11,2*%
%TO.N,GND*%
X112080000Y-63120000D03*
%TD*%
%TO.P,C10,1*%
%TO.N,/HSE_IN*%
X112100000Y-61580000D03*
%TO.P,C10,2*%
%TO.N,GND*%
X112100000Y-60620000D03*
%TD*%
D10*
%TO.P,C9,1*%
%TO.N,/NRST*%
X116940000Y-69600000D03*
%TO.P,C9,2*%
%TO.N,GND*%
X117900000Y-69600000D03*
%TD*%
D31*
%TO.P,C8,1*%
%TO.N,+3.3V*%
X113256000Y-71120000D03*
%TO.P,C8,2*%
%TO.N,GND*%
X112296000Y-71120000D03*
%TD*%
%TO.P,C7,1*%
%TO.N,+3.3VA*%
X113256000Y-69200000D03*
%TO.P,C7,2*%
%TO.N,GND*%
X112296000Y-69200000D03*
%TD*%
D30*
%TO.P,C6,1*%
%TO.N,+3.3VA*%
X113792000Y-65476000D03*
%TO.P,C6,2*%
%TO.N,GND*%
X113792000Y-64516000D03*
%TD*%
D31*
%TO.P,C5,1*%
%TO.N,+3.3V*%
X123880000Y-69500000D03*
%TO.P,C5,2*%
%TO.N,GND*%
X122920000Y-69500000D03*
%TD*%
D32*
%TO.P,C4,1*%
%TO.N,+3.3V*%
X126700000Y-60300000D03*
%TO.P,C4,2*%
%TO.N,GND*%
X126700000Y-61260000D03*
%TD*%
D10*
%TO.P,C3,1*%
%TO.N,+3.3V*%
X117340000Y-55600000D03*
%TO.P,C3,2*%
%TO.N,GND*%
X118300000Y-55600000D03*
%TD*%
D30*
%TO.P,C2,1*%
%TO.N,+3.3V*%
X114300000Y-60424000D03*
%TO.P,C2,2*%
%TO.N,GND*%
X114300000Y-59464000D03*
%TD*%
D33*
%TO.N,GND*%
X136500000Y-60600000D03*
X122100000Y-70400000D03*
X118700000Y-69600000D03*
X112400000Y-68200000D03*
X112900000Y-64800000D03*
X118100000Y-60300000D03*
X139800000Y-70600000D03*
X137600000Y-72500000D03*
X133300000Y-72000000D03*
X134100000Y-67700000D03*
X127600000Y-61200000D03*
X106400000Y-55400000D03*
X112955025Y-63155025D03*
X113000000Y-60600000D03*
X111000000Y-61200000D03*
X108400000Y-64600000D03*
%TO.N,+3.3V*%
X121100000Y-75200000D03*
X119000000Y-75200000D03*
X117700000Y-75200000D03*
%TO.N,GND*%
X117446129Y-64281384D03*
X114300000Y-58600000D03*
X122600000Y-66200000D03*
%TO.N,+3.3V*%
X114900000Y-75200000D03*
%TD*%
D34*
%TO.N,GND*%
X137850000Y-60600000D02*
X136500000Y-60600000D01*
X122920000Y-69580000D02*
X122100000Y-70400000D01*
X122920000Y-69500000D02*
X122920000Y-69580000D01*
D35*
X117900000Y-69600000D02*
X118700000Y-69600000D01*
D34*
%TO.N,+3.3V*%
X123880000Y-74620000D02*
X123300000Y-75200000D01*
X123880000Y-69500000D02*
X123880000Y-74620000D01*
X123300000Y-75200000D02*
X130900000Y-75200000D01*
D35*
%TO.N,+3.3VA*%
X114808000Y-69316500D02*
X114808000Y-66492000D01*
X114808000Y-66492000D02*
X113792000Y-65476000D01*
%TO.N,GND*%
X112296000Y-68304000D02*
X112400000Y-68200000D01*
X112296000Y-69200000D02*
X112296000Y-68304000D01*
D34*
X113000000Y-64800000D02*
X112900000Y-64800000D01*
X113200000Y-64600000D02*
X113000000Y-64800000D01*
X113284000Y-64516000D02*
X113200000Y-64600000D01*
X113792000Y-64516000D02*
X113284000Y-64516000D01*
%TO.N,+3.3V*%
X116099000Y-60424000D02*
X116175000Y-60500000D01*
X114300000Y-60424000D02*
X116099000Y-60424000D01*
X117340000Y-55540000D02*
X117340000Y-55600000D01*
X114000000Y-54400000D02*
X116200000Y-54400000D01*
X112500000Y-55900000D02*
X114000000Y-54400000D01*
X110300000Y-55900000D02*
X112500000Y-55900000D01*
X106300000Y-59900000D02*
X110300000Y-55900000D01*
X105105000Y-59900000D02*
X106300000Y-59900000D01*
X116200000Y-54400000D02*
X117340000Y-55540000D01*
%TO.N,GND*%
X118087500Y-60287500D02*
X118100000Y-60300000D01*
X118087500Y-59087500D02*
X118087500Y-60287500D01*
%TO.N,+3.3V*%
X130110000Y-60300000D02*
X130600000Y-60790000D01*
X126700000Y-60300000D02*
X130110000Y-60300000D01*
D35*
X130600000Y-52400000D02*
X131100000Y-51900000D01*
X130600000Y-60790000D02*
X130600000Y-52400000D01*
X131100000Y-51900000D02*
X131100000Y-48600000D01*
X133600000Y-54400000D02*
X131100000Y-51900000D01*
X137900000Y-54400000D02*
X133600000Y-54400000D01*
X139851000Y-56351000D02*
X137900000Y-54400000D01*
X139851000Y-66949000D02*
X139851000Y-56351000D01*
X138800000Y-68000000D02*
X139851000Y-66949000D01*
X138800000Y-75287500D02*
X138800000Y-68000000D01*
X138800000Y-75287500D02*
X140600000Y-75287500D01*
X136675000Y-76800000D02*
X138187500Y-75287500D01*
X134600000Y-76800000D02*
X136675000Y-76800000D01*
X134600000Y-76800000D02*
X131000000Y-76800000D01*
%TO.N,GND*%
X139820000Y-70580000D02*
X139800000Y-70600000D01*
X140600000Y-70580000D02*
X139820000Y-70580000D01*
X136300000Y-72500000D02*
X137600000Y-72500000D01*
X133300000Y-70500000D02*
X133300000Y-72000000D01*
X132850000Y-67700000D02*
X134100000Y-67700000D01*
D34*
X127540000Y-61260000D02*
X127600000Y-61200000D01*
X126700000Y-61260000D02*
X127540000Y-61260000D01*
D35*
%TO.N,+3.3V*%
X115160000Y-75460000D02*
X114900000Y-75200000D01*
X115160000Y-81200000D02*
X115160000Y-75460000D01*
X105700000Y-69400000D02*
X105700000Y-60495000D01*
X109500000Y-73200000D02*
X105700000Y-69400000D01*
X113256000Y-73200000D02*
X109500000Y-73200000D01*
X113256000Y-73200000D02*
X113256000Y-73556000D01*
X105700000Y-60495000D02*
X105105000Y-59900000D01*
D34*
%TO.N,Net-(U1-BOOT0)*%
X110710000Y-53490000D02*
X111000000Y-53200000D01*
X107900000Y-53490000D02*
X110710000Y-53490000D01*
%TO.N,Net-(SW1-B)*%
X107900000Y-56800000D02*
X107900000Y-54510000D01*
X106300000Y-58400000D02*
X107900000Y-56800000D01*
%TO.N,GND*%
X105400000Y-55400000D02*
X106400000Y-55400000D01*
X105105000Y-55400000D02*
X105400000Y-55400000D01*
%TO.N,+3.3V*%
X114251740Y-60424000D02*
X114300000Y-60424000D01*
X113727740Y-59900000D02*
X114251740Y-60424000D01*
X105105000Y-59900000D02*
X113727740Y-59900000D01*
D35*
%TO.N,GND*%
X112920000Y-63120000D02*
X112955025Y-63155025D01*
X112080000Y-63120000D02*
X112920000Y-63120000D01*
X112980000Y-60620000D02*
X113000000Y-60600000D01*
X112100000Y-60620000D02*
X112980000Y-60620000D01*
X110980000Y-61220000D02*
X111000000Y-61200000D01*
X110068000Y-61220000D02*
X110980000Y-61220000D01*
X108368000Y-64568000D02*
X108400000Y-64600000D01*
X108368000Y-63420000D02*
X108368000Y-64568000D01*
%TO.N,+3.3V*%
X113256000Y-73556000D02*
X114900000Y-75200000D01*
X113256000Y-71120000D02*
X113256000Y-73200000D01*
%TO.N,GND*%
X112296000Y-69200000D02*
X112296000Y-71120000D01*
%TO.N,+3.3V*%
X114579500Y-71120000D02*
X114808000Y-70891500D01*
X113256000Y-71120000D02*
X114579500Y-71120000D01*
%TO.N,+3.3VA*%
X114691500Y-69200000D02*
X114808000Y-69316500D01*
X113256000Y-69200000D02*
X114691500Y-69200000D01*
D34*
%TO.N,+3.3V*%
X121100000Y-75200000D02*
X123300000Y-75200000D01*
X130900000Y-75200000D02*
X131000000Y-75100000D01*
D35*
X131000000Y-75100000D02*
X131000000Y-76800000D01*
D34*
X119070000Y-75130000D02*
X119000000Y-75200000D01*
X119070000Y-73500000D02*
X119070000Y-75130000D01*
X117700000Y-73600000D02*
X117800000Y-73500000D01*
X117700000Y-75200000D02*
X117700000Y-73600000D01*
D35*
X131000000Y-73700000D02*
X131000000Y-75100000D01*
D34*
%TO.N,/PWR_LED_K*%
X140600000Y-73712500D02*
X140600000Y-71600000D01*
D35*
%TO.N,+3.3V*%
X138187500Y-75287500D02*
X138800000Y-75287500D01*
X137300000Y-74400000D02*
X138187500Y-75287500D01*
X136300000Y-74400000D02*
X137300000Y-74400000D01*
X136300000Y-74400000D02*
X136300000Y-75400000D01*
D34*
%TO.N,VBUS*%
X130950000Y-64650000D02*
X130950000Y-67700000D01*
X132400000Y-63200000D02*
X130950000Y-64650000D01*
X137850000Y-63200000D02*
X132400000Y-63200000D01*
D35*
%TO.N,+3.3V*%
X134900000Y-76800000D02*
X134600000Y-76800000D01*
X136300000Y-75400000D02*
X134900000Y-76800000D01*
%TO.N,VBUS*%
X128700000Y-68300000D02*
X128700000Y-70500000D01*
X129300000Y-67700000D02*
X128700000Y-68300000D01*
X130950000Y-67700000D02*
X129300000Y-67700000D01*
%TO.N,+3.3V*%
X131000000Y-70500000D02*
X131000000Y-73700000D01*
%TO.N,GND*%
X134300000Y-70500000D02*
X136300000Y-72500000D01*
X133300000Y-70500000D02*
X134300000Y-70500000D01*
X133300000Y-69300000D02*
X133300000Y-70500000D01*
X133400000Y-69200000D02*
X133300000Y-69300000D01*
X133400000Y-68250000D02*
X133400000Y-69200000D01*
X132850000Y-67700000D02*
X133400000Y-68250000D01*
D34*
%TO.N,/NRST*%
X116400000Y-69060000D02*
X116940000Y-69600000D01*
X116400000Y-67117034D02*
X116400000Y-69060000D01*
X118600000Y-64917034D02*
X116400000Y-67117034D01*
X118600000Y-64000000D02*
X118600000Y-64917034D01*
X118100000Y-63500000D02*
X118600000Y-64000000D01*
X116175000Y-63500000D02*
X118100000Y-63500000D01*
%TO.N,GND*%
X117164745Y-64000000D02*
X117446129Y-64281384D01*
X116175000Y-64000000D02*
X117164745Y-64000000D01*
D35*
X114300000Y-59464000D02*
X114300000Y-58600000D01*
D34*
%TO.N,/I2C2_SDA*%
X120090000Y-81050000D02*
X120240000Y-81200000D01*
X120090000Y-73500000D02*
X120090000Y-81050000D01*
%TO.N,/I2C2_SCL*%
X116780000Y-80280000D02*
X117700000Y-81200000D01*
X116780000Y-73500000D02*
X116780000Y-80280000D01*
%TO.N,+3.3V*%
X117800000Y-73500000D02*
X119070000Y-73500000D01*
%TO.N,/I2C2_SDA*%
X120090000Y-71410000D02*
X120090000Y-73500000D01*
X122087500Y-69412500D02*
X120090000Y-71410000D01*
X122087500Y-67412500D02*
X122087500Y-69412500D01*
%TO.N,+3.3V*%
X123880000Y-69080000D02*
X123880000Y-69500000D01*
X123087500Y-68287500D02*
X123880000Y-69080000D01*
X123087500Y-67412500D02*
X123087500Y-68287500D01*
%TO.N,GND*%
X122587500Y-69167500D02*
X122920000Y-69500000D01*
X122587500Y-67412500D02*
X122587500Y-69167500D01*
%TO.N,/I2C2_SCL*%
X116780000Y-72020000D02*
X116780000Y-73500000D01*
X117400000Y-71400000D02*
X116780000Y-72020000D01*
X118500000Y-71400000D02*
X117400000Y-71400000D01*
X121587500Y-68312500D02*
X118500000Y-71400000D01*
X121587500Y-67412500D02*
X121587500Y-68312500D01*
%TO.N,/USART1_RX*%
X120600000Y-57000000D02*
X120600000Y-52800000D01*
X120600000Y-52800000D02*
X119200000Y-51400000D01*
X120087500Y-57512500D02*
X120600000Y-57000000D01*
X120087500Y-59087500D02*
X120087500Y-57512500D01*
X119200000Y-51400000D02*
X115800000Y-51400000D01*
%TO.N,Net-(U1-BOOT0)*%
X119500000Y-53200000D02*
X111000000Y-53200000D01*
X119587500Y-53287500D02*
X119500000Y-53200000D01*
X119587500Y-59087500D02*
X119587500Y-53287500D01*
%TO.N,Net-(SW1-B)*%
X105105000Y-58400000D02*
X106300000Y-58400000D01*
%TO.N,/USART1_RX*%
X115800000Y-51400000D02*
X113000000Y-48600000D01*
%TO.N,/USART1_TX*%
X117500000Y-50560000D02*
X115540000Y-48600000D01*
X117500000Y-50600000D02*
X117500000Y-50560000D01*
X120100000Y-50600000D02*
X117500000Y-50600000D01*
X121600000Y-57200000D02*
X121600000Y-52100000D01*
X121600000Y-52100000D02*
X120100000Y-50600000D01*
X120587500Y-59087500D02*
X120587500Y-58212500D01*
X120587500Y-58212500D02*
X121600000Y-57200000D01*
%TO.N,/SWDIO*%
X123300000Y-60300000D02*
X128560000Y-55040000D01*
X123300000Y-61200000D02*
X123300000Y-60300000D01*
X128560000Y-55040000D02*
X128560000Y-48600000D01*
X123600000Y-61500000D02*
X123300000Y-61200000D01*
X124500000Y-61500000D02*
X123600000Y-61500000D01*
%TO.N,/SWCLK*%
X126020000Y-55080000D02*
X126020000Y-48600000D01*
X123100000Y-58000000D02*
X126020000Y-55080000D01*
X123100000Y-59000000D02*
X123100000Y-58000000D01*
X123087500Y-59012500D02*
X123100000Y-59000000D01*
X123087500Y-59087500D02*
X123087500Y-59012500D01*
%TO.N,GND*%
X125760000Y-61260000D02*
X126700000Y-61260000D01*
X125500000Y-61000000D02*
X125760000Y-61260000D01*
X124500000Y-61000000D02*
X125500000Y-61000000D01*
%TO.N,+3.3V*%
X125800000Y-60300000D02*
X126700000Y-60300000D01*
X125600000Y-60500000D02*
X125800000Y-60300000D01*
X124500000Y-60500000D02*
X125600000Y-60500000D01*
D36*
%TO.N,/USB_D-*%
X136874999Y-62550000D02*
X137850000Y-62550000D01*
X136774999Y-62450000D02*
X136874999Y-62550000D01*
X124550000Y-62450000D02*
X136774999Y-62450000D01*
X124500000Y-62500000D02*
X124550000Y-62450000D01*
%TO.N,/USB_D+*%
X136874999Y-61900000D02*
X137850000Y-61900000D01*
X136774999Y-62000000D02*
X136874999Y-61900000D01*
X124500000Y-62000000D02*
X136774999Y-62000000D01*
D34*
%TO.N,/HSE_IN*%
X111380000Y-62300000D02*
X109146000Y-62300000D01*
X108368000Y-61522000D02*
X108368000Y-61220000D01*
X112100000Y-61580000D02*
X111380000Y-62300000D01*
X109146000Y-62300000D02*
X108368000Y-61522000D01*
X115100000Y-62500000D02*
X114180000Y-61580000D01*
X116175000Y-62500000D02*
X115100000Y-62500000D01*
X114180000Y-61580000D02*
X112100000Y-61580000D01*
%TO.N,/HSE_OUT*%
X110728000Y-64080000D02*
X110068000Y-63420000D01*
X112080000Y-64080000D02*
X110728000Y-64080000D01*
X113020000Y-64080000D02*
X112080000Y-64080000D01*
X114100000Y-63000000D02*
X113020000Y-64080000D01*
X116175000Y-63000000D02*
X114100000Y-63000000D01*
%TO.N,+3.3VA*%
X114324000Y-65476000D02*
X115300000Y-64500000D01*
X113792000Y-65476000D02*
X114324000Y-65476000D01*
X115300000Y-64500000D02*
X116175000Y-64500000D01*
%TO.N,GND*%
X115000000Y-64000000D02*
X116175000Y-64000000D01*
X114484000Y-64516000D02*
X115000000Y-64000000D01*
X113792000Y-64516000D02*
X114484000Y-64516000D01*
X118300000Y-57000000D02*
X118300000Y-55600000D01*
%TO.N,+3.3V*%
X117340000Y-57000000D02*
X117340000Y-55600000D01*
X117340000Y-57840000D02*
X117340000Y-57000000D01*
X117587500Y-58087500D02*
X117340000Y-57840000D01*
X117587500Y-59087500D02*
X117587500Y-58087500D01*
%TO.N,GND*%
X118300000Y-57900000D02*
X118300000Y-57000000D01*
X118087500Y-58112500D02*
X118300000Y-57900000D01*
X118087500Y-59087500D02*
X118087500Y-58112500D01*
X122587500Y-67412500D02*
X122587500Y-66212500D01*
X122587500Y-66212500D02*
X122600000Y-66200000D01*
%TO.N,+3.3V*%
X131100000Y-48600000D02*
X131100000Y-47600000D01*
X131100000Y-47600000D02*
X130451000Y-46951000D01*
X118849000Y-46951000D02*
X118080000Y-47720000D01*
X130451000Y-46951000D02*
X118849000Y-46951000D01*
X118080000Y-47720000D02*
X118080000Y-48600000D01*
%TD*%
M02*
